/* XPM */
static const char * cancel_xpm[] = {
"26 26 212 2",
"  	c None",
". 	c #990000",
"+ 	c #9A0000",
"@ 	c #980000",
"# 	c #970000",
"$ 	c #A82723",
"% 	c #BD5950",
"& 	c #D48B7F",
"* 	c #DFA397",
"= 	c #DFA497",
"- 	c #EDBBA4",
"; 	c #F8D3BB",
"> 	c #FFEED2",
", 	c #FFEBD3",
"' 	c #FFEBD4",
") 	c #FFEBD6",
"! 	c #FFECD3",
"~ 	c #F8D4BC",
"{ 	c #EDBCA5",
"] 	c #B33D32",
"^ 	c #FFDDBD",
"/ 	c #FFD8B6",
"( 	c #FFDABA",
"_ 	c #FFDFC1",
": 	c #FFE1C6",
"< 	c #FFE3C9",
"[ 	c #FFE0C6",
"} 	c #FFDFC2",
"| 	c #FFDBBA",
"1 	c #FFD8B7",
"2 	c #FFDEBD",
"3 	c #B23A2F",
"4 	c #FDD3AD",
"5 	c #FFD0A7",
"6 	c #FFD2AC",
"7 	c #FFD7B4",
"8 	c #FFDCBF",
"9 	c #FFDEC1",
"0 	c #FFD6B5",
"a 	c #FFD3AD",
"b 	c #FFD1A9",
"c 	c #FDD3AE",
"d 	c #B33B2F",
"e 	c #FFCDA3",
"f 	c #FFC598",
"g 	c #FFC89E",
"h 	c #FFCCA4",
"i 	c #FFD0AC",
"j 	c #FFD1AE",
"k 	c #FFD6B7",
"l 	c #FFD7B8",
"m 	c #FFD7B6",
"n 	c #FFD2B0",
"o 	c #FFD0AB",
"p 	c #FFCCA5",
"q 	c #FFC99F",
"r 	c #FFC699",
"s 	c #FFCDA5",
"t 	c #EDA37F",
"u 	c #FFBC8A",
"v 	c #FFBD8D",
"w 	c #FFC195",
"x 	c #FFE3CE",
"y 	c #FFFFFF",
"z 	c #FFF5ED",
"A 	c #FFD0AF",
"B 	c #FFD0AE",
"C 	c #FFD1AF",
"D 	c #FFF5EE",
"E 	c #FFE2CE",
"F 	c #FFC296",
"G 	c #FFBD8E",
"H 	c #FFBC8B",
"I 	c #EDA480",
"J 	c #A82018",
"K 	c #F8AC82",
"L 	c #FFB07B",
"M 	c #FFB685",
"N 	c #FFBA8C",
"O 	c #FFF2E9",
"P 	c #FFC8A3",
"Q 	c #FFB686",
"R 	c #FFB07C",
"S 	c #F8AD82",
"T 	c #BC4332",
"U 	c #FFB077",
"V 	c #FFA973",
"W 	c #FFAE7B",
"X 	c #FFAF7E",
"Y 	c #FFEFE5",
"Z 	c #FFEBDE",
"` 	c #FFB07E",
" .	c #FFB078",
"..	c #BC4433",
"+.	c #D36448",
"@.	c #FFA26A",
"#.	c #FF9E68",
"$.	c #FFA570",
"%.	c #FFA977",
"&.	c #FFAF82",
"*.	c #FFEBDF",
"=.	c #FFAF81",
"-.	c #FFA571",
";.	c #FF9F69",
">.	c #FFA36B",
",.	c #DE6F4E",
"'.	c #FF975F",
").	c #FF965E",
"!.	c #FF9A65",
"~.	c #FF9E6B",
"{.	c #FFA270",
"].	c #FFA576",
"^.	c #FFE1D1",
"/.	c #FFA271",
"(.	c #FF9E6C",
"_.	c #FF9A66",
":.	c #FF9860",
"<.	c #DE6948",
"[.	c #FF8D53",
"}.	c #FF8B53",
"|.	c #FF8F59",
"1.	c #FF935F",
"2.	c #FF9564",
"3.	c #FF9A6A",
"4.	c #FFE1D3",
"5.	c #FF9664",
"6.	c #FF8F5A",
"7.	c #FF8B54",
"8.	c #FF8C54",
"9.	c #D35539",
"0.	c #FF834A",
"a.	c #FF8047",
"b.	c #FF844D",
"c.	c #FF8753",
"d.	c #FF8E5C",
"e.	c #FFE4D8",
"f.	c #FF8D5C",
"g.	c #FF8854",
"h.	c #FF8048",
"i.	c #FF844A",
"j.	c #D3563A",
"k.	c #BC3523",
"l.	c #FF7B42",
"m.	c #FF743C",
"n.	c #FF7841",
"o.	c #FF763E",
"p.	c #FFE5DB",
"q.	c #FFD7C7",
"r.	c #FF773E",
"s.	c #FF7842",
"t.	c #FF753C",
"u.	c #FF7C43",
"v.	c #A8160F",
"w.	c #F87549",
"x.	c #FF662E",
"y.	c #FF6B34",
"z.	c #FF6E37",
"A.	c #FFDDD0",
"B.	c #FF7946",
"C.	c #FF6E38",
"D.	c #FF6C35",
"E.	c #FF672F",
"F.	c #F87649",
"G.	c #EC6842",
"H.	c #FF6430",
"I.	c #FF5E28",
"J.	c #FF612A",
"K.	c #FFB398",
"L.	c #FFDED3",
"M.	c #FF6F3C",
"N.	c #FF6B37",
"O.	c #FF6F3D",
"P.	c #FF602B",
"Q.	c #FF5F28",
"R.	c #FF652F",
"S.	c #EC6843",
"T.	c #FF7549",
"U.	c #FF5821",
"V.	c #FF5822",
"W.	c #FF5A25",
"X.	c #FF5721",
"Y.	c #FF5F2B",
"Z.	c #FF5F2C",
"`.	c #B21E13",
" +	c #FC683C",
".+	c #FF4F1B",
"++	c #FF4C18",
"@+	c #FF511E",
"#+	c #FF521E",
"$+	c #FF521F",
"%+	c #FF4D18",
"&+	c #FC693B",
"*+	c #B21F13",
"=+	c #B21C11",
"-+	c #FF683D",
";+	c #FF4D1C",
">+	c #FF430F",
",+	c #FF4713",
"'+	c #FF4714",
")+	c #EC5432",
"!+	c #F7562F",
"~+	c #FF4916",
"{+	c #FF4615",
"]+	c #FF4514",
"^+	c #FF4614",
"/+	c #FF4917",
"(+	c #F7572F",
"_+	c #EC5532",
":+	c #A7100A",
"<+	c #BC2516",
"[+	c #D2361F",
"}+	c #DE4023",
"                                                    ",
"                      . + + @                       ",
"                  + + . . . . + +                   ",
"              + # $ % & * = & % $ # +               ",
"          + @ # - ; > , ' ) ! > ~ { # @ +           ",
"        + . ] ^ / ( _ : < < [ } | 1 2 ] . +         ",
"        @ 3 4 5 6 7 ( 8 9 9 8 ( 0 a b c d @         ",
"      + # e f g h i j k l l m n o p q r s # +       ",
"      # t u v w x y z A B B C D y E F G H I #       ",
"    + J K L M N y y y O P P O y y y N Q R S J +     ",
"    + T U V W X Y y y y Z Z y y y Y ` W V  ...+     ",
"  . . +.@.#.$.%.&.*.y y y y y y *.=.%.-.;.>.+.. .   ",
"  + . ,.'.).!.~.{.].^.y y y y ^.]./.(._.).:.,.. +   ",
"  + . <.[.}.|.1.2.3.4.y y y y 4.3.5.1.6.7.8.<.. +   ",
"  . . 9.0.a.b.c.d.e.y y y y y y e.f.g.b.h.i.j.. .   ",
"    + k.l.m.n.o.p.y y y q.q.y y y p.r.s.t.u.k.+     ",
"    + v.w.x.y.z.y y y A.B.B.A.y y y C.D.E.F.v.+     ",
"      # G.H.I.J.K.y L.M.N.N.O.L.y K.P.Q.R.S.#       ",
"      + # T.U.V.U.W.X.Y.Z.Z.Y.X.W.V.V.V.T.# +       ",
"        @ `. +.+++.+@+#+$+$+#+@+.+%+.+&+*+@         ",
"        + . =+-+;+>+,+,+'+'+,+,+>+;+-+=+. +         ",
"          + @ # )+!+~+{+]+]+^+/+(+_+# @ +           ",
"              + # :+<+[+}+}+[+<+:+# +               ",
"                  + + . . . . + +                   ",
"                      . + + .                       ",
"                                                    "};
