/* XPM */
static const char * cancel_xpm[] = {
"36 36 367 2",
"  	c None",
". 	c #980000",
"+ 	c #9A0000",
"@ 	c #990000",
"# 	c #950000",
"$ 	c #9E0B09",
"% 	c #B5423B",
"& 	c #C5675E",
"* 	c #CC776E",
"= 	c #B13831",
"- 	c #E8B3A0",
"; 	c #FFFBE3",
"> 	c #FFF1DC",
", 	c #FFEDDB",
"' 	c #FFEDDA",
") 	c #FFEEDB",
"! 	c #FFF2DD",
"~ 	c #FFFCE4",
"{ 	c #E8B4A0",
"] 	c #A31A16",
"^ 	c #FCDCC0",
"/ 	c #FFE4C9",
"( 	c #FFE2C7",
"_ 	c #FFE1C5",
": 	c #FFE3C9",
"< 	c #FFE5CD",
"[ 	c #FFE6CE",
"} 	c #FFE6D0",
"| 	c #FFE6CD",
"1 	c #FFE4CA",
"2 	c #FFE2C8",
"3 	c #FFE5CA",
"4 	c #FCDDC1",
"5 	c #960000",
"6 	c #CB6E5B",
"7 	c #FFDCBD",
"8 	c #FFDAB8",
"9 	c #FFD9B8",
"0 	c #FFDFC1",
"a 	c #FFE3CA",
"b 	c #FFE0C5",
"c 	c #FFDFC2",
"d 	c #FFDAB9",
"e 	c #FFDDBD",
"f 	c #CB6E5C",
"g 	c #D7836B",
"h 	c #FFDFBA",
"i 	c #FFD2AB",
"j 	c #FFD3AD",
"k 	c #FFD6B3",
"l 	c #FFDEC0",
"m 	c #FFDFC3",
"n 	c #FFE0C4",
"o 	c #FFDEC1",
"p 	c #FFD9B9",
"q 	c #FFD6B4",
"r 	c #FFD4AE",
"s 	c #FFD2AC",
"t 	c #FFDFBB",
"u 	c #D6836C",
"v 	c #CB6853",
"w 	c #FFD9B1",
"x 	c #FFCBA0",
"y 	c #FFCDA3",
"z 	c #FFD0A9",
"A 	c #FFD3AE",
"B 	c #FFD8B7",
"C 	c #FFD9BB",
"D 	c #FFDBBD",
"E 	c #FFDBBF",
"F 	c #FFDBBE",
"G 	c #FFD3AF",
"H 	c #FFD0AA",
"I 	c #FFCEA5",
"J 	c #FFCAA1",
"K 	c #FFD9B2",
"L 	c #CC6954",
"M 	c #A31712",
"N 	c #FFCBA2",
"O 	c #FFC395",
"P 	c #FFC598",
"Q 	c #FFC89E",
"R 	c #FFCBA3",
"S 	c #FFCFAA",
"T 	c #FFD3B1",
"U 	c #FFD2B0",
"V 	c #FFD5B4",
"W 	c #FFD6B7",
"X 	c #FFD7B7",
"Y 	c #FFD3B2",
"Z 	c #FFCBA4",
"` 	c #FFC99F",
" .	c #FFC599",
"..	c #FFC496",
"+.	c #FCC296",
"@.	c #FFC090",
"#.	c #FFBC8C",
"$.	c #FFC192",
"%.	c #FFC398",
"&.	c #FFCDA9",
"*.	c #FFFDFC",
"=.	c #FFFEFE",
"-.	c #FFF1E5",
";.	c #FFCFAC",
">.	c #FFD1AF",
",.	c #FFD0AC",
"'.	c #FFF1E6",
").	c #FFC499",
"!.	c #FFC193",
"~.	c #FFBD8D",
"{.	c #FFC091",
"].	c #FCC397",
"^.	c #B12E23",
"/.	c #FFC195",
"(.	c #FFB580",
"_.	c #FFB886",
":.	c #FFBB8C",
"<.	c #FFC094",
"[.	c #FFFDFB",
"}.	c #FFFFFF",
"|.	c #FFF2E9",
"1.	c #FFCAA6",
"2.	c #FFCCA9",
"3.	c #FFC095",
"4.	c #FFBC8D",
"5.	c #FFB887",
"6.	c #FFB581",
"7.	c #E9916D",
"8.	c #FFB483",
"9.	c #FFAE79",
"0.	c #FFB280",
"a.	c #FFB685",
"b.	c #FFBB8F",
"c.	c #FFEDDF",
"d.	c #FFC59F",
"e.	c #FFECDF",
"f.	c #FFBC8F",
"g.	c #FFB686",
"h.	c #FFB281",
"i.	c #FFAE7A",
"j.	c #FFB484",
"k.	c #E9926E",
"l.	c #9D0705",
"m.	c #FFC18F",
"n.	c #FFA56C",
"o.	c #FFA973",
"p.	c #FFAC78",
"q.	c #FFB07E",
"r.	c #FFB282",
"s.	c #FFE7D9",
"t.	c #FFE6D7",
"u.	c #FFB383",
"v.	c #FFAD79",
"w.	c #FFA56D",
"x.	c #FFC290",
"y.	c #B53022",
"z.	c #FF9E65",
"A.	c #FFA16B",
"B.	c #FFA671",
"C.	c #FFA976",
"D.	c #FFAC7B",
"E.	c #FFAD7E",
"F.	c #FFEADD",
"G.	c #FFAE7E",
"H.	c #FFAA77",
"I.	c #FFA672",
"J.	c #FFA26C",
"K.	c #FF9F66",
"L.	c #FFB382",
"M.	c #C34732",
"N.	c #FFA876",
"O.	c #FF975E",
"P.	c #FF9A63",
"Q.	c #FF9E6A",
"R.	c #FFA26E",
"S.	c #FFA473",
"T.	c #FFA878",
"U.	c #FFA979",
"V.	c #FFE2D1",
"W.	c #FFE1D2",
"X.	c #FFA573",
"Y.	c #FFA26F",
"Z.	c #FF9F6A",
"`.	c #FF9B64",
" +	c #FF985F",
".+	c #FFA877",
"++	c #C34733",
"@+	c #CB5038",
"#+	c #FF9F6D",
"$+	c #FF9057",
"%+	c #FF945C",
"&+	c #FF9761",
"*+	c #FF9A66",
"=+	c #FF9D6A",
"-+	c #FFA06E",
";+	c #FFA271",
">+	c #FFA273",
",+	c #FFDAC7",
"'+	c #FFA272",
")+	c #FFA06F",
"!+	c #FF9D6B",
"~+	c #FF9A67",
"{+	c #FF9762",
"]+	c #FF9158",
"^+	c #CB4D35",
"/+	c #FF9967",
"(+	c #FF894E",
"_+	c #FF8C54",
":+	c #FF8F58",
"<+	c #FF925D",
"[+	c #FF9561",
"}+	c #FF9766",
"|+	c #FF9969",
"1+	c #FF9A69",
"2+	c #FFDAC8",
"3+	c #FF9866",
"4+	c #FF925E",
"5+	c #FF9059",
"6+	c #FF8C55",
"7+	c #FF884F",
"8+	c #C33F2B",
"9+	c #FF9563",
"0+	c #FF8046",
"a+	c #FF844C",
"b+	c #FF8750",
"c+	c #FF8A54",
"d+	c #FF8C58",
"e+	c #FF8F5C",
"f+	c #FFDBCB",
"g+	c #FF8F5D",
"h+	c #FF8A55",
"i+	c #FF844D",
"j+	c #FF8147",
"k+	c #FF9664",
"l+	c #B5271A",
"m+	c #FF9360",
"n+	c #FF783E",
"o+	c #FF7C43",
"p+	c #FF7E48",
"q+	c #FF824B",
"r+	c #FF834F",
"s+	c #FF8450",
"t+	c #FFE1D4",
"u+	c #FF7C44",
"v+	c #FF9462",
"w+	c #9D0503",
"x+	c #FF9663",
"y+	c #FF6F36",
"z+	c #FF733B",
"A+	c #FF773F",
"B+	c #FF7842",
"C+	c #FF7A44",
"D+	c #FFD8C9",
"E+	c #FFCDBA",
"F+	c #FF7B44",
"G+	c #FF7943",
"H+	c #FF743B",
"I+	c #FF7037",
"J+	c #E86743",
"K+	c #FF7946",
"L+	c #FF6A32",
"M+	c #FF6D36",
"N+	c #FF703A",
"O+	c #FF7844",
"P+	c #FFFDFD",
"Q+	c #FFD1BE",
"R+	c #FF7945",
"S+	c #FF713A",
"T+	c #FF6E36",
"U+	c #FF6B33",
"V+	c #E86844",
"W+	c #B11E13",
"X+	c #FF8052",
"Y+	c #FF632B",
"Z+	c #FF652D",
"`+	c #FF6730",
" @	c #FF6D38",
".@	c #FFFBF9",
"+@	c #FFD8CA",
"@@	c #FF6F3B",
"#@	c #FF723F",
"$@	c #FF6C39",
"%@	c #FF6831",
"&@	c #FF652E",
"*@	c #FF8253",
"=@	c #FB784B",
"-@	c #FF6836",
";@	c #FF5C25",
">@	c #FF5E29",
",@	c #FF602A",
"'@	c #FF7647",
")@	c #FFFAF8",
"!@	c #FFCEBD",
"~@	c #FF6631",
"{@	c #FF6935",
"]@	c #FF6936",
"^@	c #FFF9F8",
"/@	c #FF7747",
"(@	c #FF602B",
"_@	c #FF5F29",
":@	c #FB784C",
"<@	c #A30D08",
"[@	c #FF764A",
"}@	c #FF5B25",
"|@	c #FF5720",
"1@	c #FF5923",
"2@	c #FF5A24",
"3@	c #FF5E2A",
"4@	c #FF6331",
"5@	c #FF5D28",
"6@	c #FF5F2B",
"7@	c #FF602C",
"8@	c #FF602D",
"9@	c #FF5721",
"0@	c #FF5B26",
"a@	c #C93722",
"b@	c #FF7447",
"c@	c #FF531F",
"d@	c #FF501B",
"e@	c #FF511C",
"f@	c #FF5420",
"g@	c #FF5521",
"h@	c #FF5622",
"i@	c #FF5623",
"j@	c #FF5723",
"k@	c #FF521D",
"l@	c #CA3822",
"m@	c #D54126",
"n@	c #FF6F43",
"o@	c #FF4F1C",
"p@	c #FF4915",
"q@	c #FF4B17",
"r@	c #FF4C18",
"s@	c #FF4D1A",
"t@	c #FF4D1B",
"u@	c #FF4E1A",
"v@	c #FF4E1B",
"w@	c #FF4B18",
"x@	c #FF7043",
"y@	c #C9321E",
"z@	c #FF683E",
"A@	c #FF5324",
"B@	c #FF4511",
"C@	c #FF4410",
"D@	c #FF4612",
"E@	c #FF4613",
"F@	c #A30B06",
"G@	c #FB6138",
"H@	c #FF653C",
"I@	c #FF5326",
"J@	c #FF3E0A",
"K@	c #FF3E0B",
"L@	c #FF3F0C",
"M@	c #FF5426",
"N@	c #FB6238",
"O@	c #AF170D",
"P@	c #E5492B",
"Q@	c #FF673C",
"R@	c #FF5F34",
"S@	c #FF5C31",
"T@	c #FF582E",
"U@	c #E54A2B",
"V@	c #B0170D",
"W@	c #9D0402",
"X@	c #B4190E",
"Y@	c #C22716",
"Z@	c #CB2F1A",
"                                                                        ",
"                                                                        ",
"                              . + + + @ .                               ",
"                        + + + + + + + + + + + +                         ",
"                    + + + # $ % & * * & % $ # + + +                     ",
"                @ + + + = - ; > , ' , ) ! ~ { = + + + @                 ",
"              + + + ] ^ / ( _ : < [ } | 1 _ 2 3 4 ] + + +               ",
"            + + 5 6 7 8 9 7 0 _ 2 a a 2 b c 7 d d e f 5 + +             ",
"          @ + # g h i j k 9 7 l m n n m o 7 p q r s t u # + @           ",
"          + + v w x y z A k B C D E F D C B q G H I J K L + +           ",
"        + + M N O P Q R S T U V W X X W q Y T H Z `  ...R M + +         ",
"        + + +.@.#.$.%.&.*.=.-.;.>.U U >.,.'.=.*.&.).!.~.{.].+ +         ",
"      + + ^./.(._.:.<.[.}.}.}.|.1.2.2.1.|.}.}.}.[.3.4.5.6./.^.+ +       ",
"      + # 7.8.9.0.a.b.=.}.}.}.}.c.d.d.e.}.}.}.}.=.f.g.h.i.j.k.# +       ",
"      + l.m.n.o.p.q.r.s.}.}.}.}.}.t.t.}.}.}.}.}.s.u.q.v.o.w.x.l.+       ",
"    @ + y.h.z.A.B.C.D.E.F.}.}.}.}.}.}.}.}.}.}.F.G.D.H.I.J.K.L.y.+ @     ",
"    @ + M.N.O.P.Q.R.S.T.U.V.}.}.}.}.}.}.}.}.W.U.T.X.Y.Z.`. +.++++ +     ",
"    + + @+#+$+%+&+*+=+-+;+>+,+}.}.}.}.}.}.,+>+'+)+!+~+{+%+]+-+@++ +     ",
"    + + ^+/+(+_+:+<+[+}+|+1+2+}.}.}.}.}.}.2+1+1+3+[+4+5+6+7+/+^++ +     ",
"    + + 8+9+0+a+b+c+d+e+e+f+}.}.}.}.}.}.}.}.f+g+e+d+h+b+i+j+k+8++ +     ",
"    @ + l+m+n+o+p+q+r+s+t+}.}.}.}.}.}.}.}.}.}.t+s+s+q+p+u+n+v+l++ @     ",
"      + w+x+y+z+A+B+C+D+}.}.}.}.}.E+E+}.}.}.}.}.D+F+G+A+H+I+x+w++       ",
"      + # J+K+L+M+N+O+P+}.}.}.}.Q+K+K+Q+}.}.}.}.P+R+S+T+U+K+V+# +       ",
"      + + W+X+Y+Z+`+ @.@}.}.}.+@@@#@#@@@+@}.}.}..@$@%@&@Y+*@W++ +       ",
"        + @ =@-@;@>@,@'@)@P+!@~@{@]@]@]@~@!@P+^@/@(@_@;@{@:@@ +         ",
"        + + <@[@}@|@1@2@3@4@5@6@7@8@8@7@6@5@4@6@2@1@9@0@[@<@+ +         ",
"          + + a@b@c@d@e@c@f@g@h@i@j@j@i@h@g@f@c@k@d@c@b@l@+ +           ",
"          @ + 5 m@n@o@p@q@r@s@t@u@v@v@u@v@s@r@w@p@o@x@m@5 + @           ",
"            + + 5 y@z@A@B@C@D@D@E@E@E@E@D@D@C@B@A@z@y@5 + +             ",
"              + + + F@G@H@I@J@K@L@L@L@L@K@K@M@H@N@F@+ + +               ",
"                @ + + @ O@P@Q@R@S@T@T@S@R@Q@U@V@@ + + @                 ",
"                    + + + # W@X@Y@Z@Z@Y@X@W@# + + +                     ",
"                        + + + + + + + + + + + +                         ",
"                              @ + + + + @                               ",
"                                                                        ",
"                                                                        "};
