/* XPM */
static const char * close_xpm[] = {
"36 36 192 2",
"  	c None",
". 	c #F7EE70",
"+ 	c #F7EE72",
"@ 	c #F7EE71",
"# 	c #F5EB5F",
"$ 	c #F8F196",
"% 	c #F8F293",
"& 	c #F7ED67",
"* 	c #FEFDF1",
"= 	c #FEFDEF",
"- 	c #FEFDF3",
"; 	c #FCFAD1",
"> 	c #FEFEF3",
", 	c #FEFDEB",
"' 	c #FDFCEA",
") 	c #FDFCE9",
"! 	c #FEFCE6",
"~ 	c #F7EE6C",
"{ 	c #FEFCE9",
"] 	c #FDFCE8",
"^ 	c #FEFBE5",
"/ 	c #F7EE6A",
"( 	c #FCFBDD",
"_ 	c #FDFBE4",
": 	c #FDFBE5",
"< 	c #FDFCE5",
"[ 	c #FDFBE2",
"} 	c #F7EE6E",
"| 	c #FDFBDE",
"1 	c #FDFBE0",
"2 	c #FDFBE1",
"3 	c #FDFBDD",
"4 	c #FDFBDB",
"5 	c #FDFBDF",
"6 	c #FDFAD7",
"7 	c #FDFAD6",
"8 	c #FDFAD8",
"9 	c #FDFADA",
"0 	c #FDFBDA",
"a 	c #FDFBDC",
"b 	c #FDFADB",
"c 	c #FDF9D0",
"d 	c #FCFAD2",
"e 	c #FCF9D0",
"f 	c #FCFAD5",
"g 	c #FCFAD6",
"h 	c #FCF9C7",
"i 	c #FCF9CD",
"j 	c #FCF8C8",
"k 	c #FCF9CC",
"l 	c #FCF9CE",
"m 	c #FCF9D2",
"n 	c #FCFAD3",
"o 	c #FDFAD4",
"p 	c #FCFAD4",
"q 	c #FAF4A2",
"r 	c #FAF3A1",
"s 	c #FAF39F",
"t 	c #FAF49F",
"u 	c #F9F49E",
"v 	c #FAF39C",
"w 	c #FAF39B",
"x 	c #F9F398",
"y 	c #F7EE6D",
"z 	c #FCF9CA",
"A 	c #FCF8C6",
"B 	c #FCF8C2",
"C 	c #FCF8C4",
"D 	c #FCF9CB",
"E 	c #FCFACF",
"F 	c #FCF8C9",
"G 	c #FCF8C5",
"H 	c #F7EE6B",
"I 	c #F6ED6F",
"J 	c #FBF7C0",
"K 	c #FBF7BB",
"L 	c #FBF7BC",
"M 	c #FBF7BF",
"N 	c #FBF8C1",
"O 	c #FCF8C3",
"P 	c #FCF8C7",
"Q 	c #FBF7BE",
"R 	c #FBF7B9",
"S 	c #FBF6B4",
"T 	c #FBF8BF",
"U 	c #F9F292",
"V 	c #F7ED65",
"W 	c #FBF8BE",
"X 	c #FBF6B8",
"Y 	c #FBF6B0",
"Z 	c #FBF6B3",
"` 	c #FBF6B7",
" .	c #FBF7BA",
"..	c #FBF7BD",
"+.	c #FBF7C1",
"@.	c #FBF6B6",
"#.	c #FBF5AE",
"$.	c #F9F293",
"%.	c #F9F189",
"&.	c #FBF6B5",
"*.	c #FAF5A8",
"=.	c #FAF5AC",
"-.	c #FAF5AE",
";.	c #FBF6AF",
">.	c #FBF6B2",
",.	c #FAF5AB",
"'.	c #FAF5AA",
").	c #F9F290",
"!.	c #F8F186",
"~.	c #FAF4A3",
"{.	c #FAF5A6",
"].	c #FBF5AD",
"^.	c #FBF6AD",
"/.	c #FBF6B1",
"(.	c #FAF5A9",
"_.	c #F9F18E",
":.	c #FBF6AE",
"<.	c #FAF4A1",
"[.	c #FAF5A5",
"}.	c #FAF4A9",
"|.	c #F8F18B",
"1.	c #F7ED6A",
"2.	c #FAF5AF",
"3.	c #FAF4A4",
"4.	c #FAF399",
"5.	c #FAF39D",
"6.	c #FAF49E",
"7.	c #FAF4A0",
"8.	c #FAF4A5",
"9.	c #FAF4A6",
"0.	c #FAF39A",
"a.	c #F9F396",
"b.	c #FAF5A4",
"c.	c #F8F086",
"d.	c #F7ED69",
"e.	c #FAF5A7",
"f.	c #F9F294",
"g.	c #F9F397",
"h.	c #F9F39A",
"i.	c #F9F39B",
"j.	c #FBF5AC",
"k.	c #FBF5AB",
"l.	c #F7ED68",
"m.	c #F6EC61",
"n.	c #F9F28E",
"o.	c #F9F295",
"p.	c #F9F296",
"q.	c #F9F297",
"r.	c #F9F28B",
"s.	c #F9F28C",
"t.	c #F8F189",
"u.	c #F8F18A",
"v.	c #F8F187",
"w.	c #F9F086",
"x.	c #F8F183",
"y.	c #F6EC5E",
"z.	c #F9F395",
"A.	c #F9F289",
"B.	c #F9F28D",
"C.	c #F6ED64",
"D.	c #F8F083",
"E.	c #F9F185",
"F.	c #F9F186",
"G.	c #F9F187",
"H.	c #F9F188",
"I.	c #F9F399",
"J.	c #F9F18B",
"K.	c #F8F07B",
"L.	c #F8F07F",
"M.	c #F8F081",
"N.	c #F9F394",
"O.	c #F7ED63",
"P.	c #F9F18D",
"Q.	c #F8EF75",
"R.	c #F8EF76",
"S.	c #F8EF77",
"T.	c #F8F079",
"U.	c #F9F28F",
"V.	c #F6EC5B",
"W.	c #F8F080",
"X.	c #F8EF70",
"Y.	c #F8EF71",
"Z.	c #F8EF72",
"`.	c #F8EF73",
" +	c #F6EC5D",
".+	c #F8F07A",
"++	c #F7EE69",
"@+	c #F6ED65",
"#+	c #F7EE6F",
"$+	c #F8F07D",
"%+	c #F8F078",
"&+	c #F6ED67",
"                                                                        ",
"                                                                        ",
"                                . . . .                                 ",
"                              . . + @ . .                               ",
"                            . . # $ % & . .                             ",
"                          . . + * = - ; . .                             ",
"                        . . + > , ' ) ! + . .                           ",
"                      . . ~ { ] ] ] ] ^ + . .                           ",
"                    . . / ( _ _ : : < [ + . .                           ",
"                  . . } | [ 1 2 2 [ [ 1 + . .                           ",
"                . . @ : 3 4 3 5 1 1 1 5 + . .                           ",
"              . . ~ 1 6 7 6 8 9 0 a a b + . . . . . . . . . .           ",
"            . . & c d e d f g 7 7 7 6 8 + . . . . . . . . . . . .       ",
"          . . & h i j k i l e m n o p 8 q r s s s t u v w x y . .       ",
"        . . y z A B C A j z z D k k k ; n n d ; E k z F A G k H . I     ",
"      . . ~ F J K L M N B O C P j j j j A C O B N Q L K R S T U . .     ",
"    . . V W X Y Z `  .K ..+.+.J J N N J +.+.J ..K R @.Z Y #. .$.. .     ",
"    . . %.&.*.=.-.;.Z S @.@.`  .K K K  .R ` @.@.S >.#.-.,.'.Z ).. .     ",
"    . . !.>.~.{.'.,.].^.;./.>.Z Z Z Z Z Z >./.Y ^.].,.(.{.~.Y _.. .     ",
"    . . V :.(.t <.~.{.*.'.,.=.=.=.].].=.=.=.'.'.*.[.~.<.t v }.|.. .     ",
"      . . 1.2.3.4.5.6.t 7.q 3.8.9.9.9.8.8.3.q 7.t 6.5.0.x a.b.c.. .     ",
"        . . d.e.6.f.g.h.i.v v v v 5.v 8.j.k.'.'.*.{.3.q q q {.l.. I     ",
"          . . m.w w n.).U $.o.p.q.q.x (.r.s.r.t.u.t.v.v.w.x.l.@ .       ",
"            . . y.v z.A.s.s.B.n.n.n.).t . . . . . . . . . . . . .       ",
"              . . C.5.).D.E.E.F.G.F.H.0.. . . . . . . . . . .           ",
"                . . d.I.J.K.L.L.L.L.M.N.. . .                           ",
"                  . . O.P.!.Q.R.S.S.T.U.. . .                           ",
"                    . . V.E.W.X.Y.Z.`.H.. . .                           ",
"                      . .  +F..+++++~ F.. . .                           ",
"                        . . @+v.R.O.& W.#+. .                           ",
"                          . @ @+$+%+K.y #+.                             ",
"                            . . m.l.y &+. .                             ",
"                              . . @ . . .                               ",
"                                . . . .                                 ",
"                                                                        ",
"                                                                        "};
