/* XPM */
static const char * close_xpm[] = {
"36 36 359 2",
"  	c None",
". 	c #009900",
"+ 	c #14A113",
"@ 	c #78CB74",
"# 	c #6BC566",
"$ 	c #009700",
"% 	c #009800",
"& 	c #1AA218",
"* 	c #F1FFE7",
"= 	c #EDFFE4",
"- 	c #F0FFE7",
"; 	c #D2F2C9",
"> 	c #019901",
", 	c #19A218",
"' 	c #F3FFE8",
") 	c #E9FFDE",
"! 	c #E6FEDA",
"~ 	c #E7FEDB",
"{ 	c #E7FDDD",
"] 	c #069806",
"^ 	c #1EA51C",
"/ 	c #E9FFDB",
"( 	c #E6FED9",
"_ 	c #E3FED6",
": 	c #E4FED7",
"< 	c #E4FED8",
"[ 	c #E5FCDB",
"} 	c #1FA51D",
"| 	c #DCFACF",
"1 	c #E1FDD2",
"2 	c #DFFDD0",
"3 	c #E1FDD3",
"4 	c #E2FDD3",
"5 	c #E3FCD7",
"6 	c #069805",
"7 	c #1AA318",
"8 	c #DBFBCC",
"9 	c #DCFDCC",
"0 	c #DAFDC8",
"a 	c #DCFDCB",
"b 	c #DEFDCD",
"c 	c #DEFDCE",
"d 	c #DFFDCF",
"e 	c #E1FBD4",
"f 	c #16A114",
"g 	c #E0FFCE",
"h 	c #D7FCC6",
"i 	c #D5FCC0",
"j 	c #D7FCC4",
"k 	c #D9FCC7",
"l 	c #DAFCC8",
"m 	c #DBFCC8",
"n 	c #DBFCC9",
"o 	c #DEFBD0",
"p 	c #19A316",
"q 	c #DBFEC7",
"r 	c #D3FABE",
"s 	c #CFFAB8",
"t 	c #D2FBBC",
"u 	c #D3FBBF",
"v 	c #D5FBC1",
"w 	c #D5FBC2",
"x 	c #D6FBC3",
"y 	c #D7FBC4",
"z 	c #DBFACC",
"A 	c #1CA518",
"B 	c #CCF7B7",
"C 	c #CCF9B6",
"D 	c #C8F8B0",
"E 	c #CBF9B3",
"F 	c #CDF9B6",
"G 	c #CFF9B9",
"H 	c #D1F9BB",
"I 	c #D2F9BC",
"J 	c #D2F9BD",
"K 	c #D2FABD",
"L 	c #D7F9C7",
"M 	c #059805",
"N 	c #C4F5AC",
"O 	c #C6F7AD",
"P 	c #C1F6A5",
"Q 	c #C4F8AA",
"R 	c #C7F8AE",
"S 	c #C8F7B0",
"T 	c #CAF8B2",
"U 	c #CCF9B4",
"V 	c #CDF9B7",
"W 	c #D6F9C4",
"X 	c #6EC965",
"Y 	c #6BC962",
"Z 	c #6BC960",
"` 	c #6AC95F",
" .	c #69C95E",
"..	c #67C95C",
"+.	c #66C95B",
"@.	c #65C85A",
"#.	c #64C857",
"$.	c #60C653",
"%.	c #14A111",
"&.	c #C5F6AB",
"*.	c #C0F5A4",
"=.	c #B9F59B",
"-.	c #BDF6A0",
";.	c #C2F6A7",
">.	c #C4F7A9",
",.	c #C6F6AC",
"'.	c #C6F6AD",
").	c #C7F7AE",
"!.	c #C8F7AF",
"~.	c #C7F7AF",
"{.	c #CCF8B6",
"].	c #CFF8BA",
"^.	c #CEF8B8",
"/.	c #CDF8B7",
"(.	c #CCF7B4",
"_.	c #CAF7B1",
":.	c #C8F6AF",
"<.	c #C3F6A8",
"[.	c #BEF6A1",
"}.	c #CEFDAF",
"|.	c #13A110",
"1.	c #C5F7A7",
"2.	c #BAF39B",
"3.	c #B2F391",
"4.	c #B6F396",
"5.	c #B8F399",
"6.	c #BBF49D",
"7.	c #BDF4A0",
"8.	c #BEF4A3",
"9.	c #C1F5A6",
"0.	c #C2F5A8",
"a.	c #BEF4A2",
"b.	c #BDF49F",
"c.	c #BAF49D",
"d.	c #B5F395",
"e.	c #B2F291",
"f.	c #AFF28D",
"g.	c #ACF188",
"h.	c #B8F498",
"i.	c #59C44A",
"j.	c #0C9F0A",
"k.	c #B2F092",
"l.	c #ABEF87",
"m.	c #ADF08B",
"n.	c #B0F08F",
"o.	c #B3F193",
"p.	c #B5F195",
"q.	c #B7F299",
"r.	c #B9F29B",
"s.	c #BBF29D",
"t.	c #BCF29F",
"u.	c #BCF2A0",
"v.	c #BDF3A1",
"w.	c #BCF3A1",
"x.	c #B7F298",
"y.	c #B5F196",
"z.	c #AAEF87",
"A.	c #A7EF83",
"B.	c #B3F292",
"C.	c #5CC54C",
"D.	c #53C244",
"E.	c #B1EF90",
"F.	c #A2EC7B",
"G.	c #A6ED81",
"H.	c #A9EE85",
"I.	c #ABEE88",
"J.	c #ADEF8C",
"K.	c #AFEF8F",
"L.	c #B2F091",
"M.	c #B3F094",
"N.	c #B4F096",
"O.	c #B6F098",
"P.	c #B6F199",
"Q.	c #B7F199",
"R.	c #B5F097",
"S.	c #B4F095",
"T.	c #B3F093",
"U.	c #B1F091",
"V.	c #ADEE8B",
"W.	c #A8EE84",
"X.	c #A6ED80",
"Y.	c #A2EC7C",
"Z.	c #AEEF8D",
"`.	c #59C449",
" +	c #51C142",
".+	c #ADEE8A",
"++	c #9DEA75",
"@+	c #A1EB7A",
"#+	c #A3EC7E",
"$+	c #A6EC81",
"%+	c #A8ED85",
"&+	c #AAED87",
"*+	c #ABED8A",
"=+	c #ADEE8C",
"-+	c #AFEE8E",
";+	c #B0EE8F",
">+	c #B0EE90",
",+	c #ACED8A",
"'+	c #A8EC84",
")+	c #A5EC81",
"!+	c #A3EC7D",
"~+	c #A1EB79",
"{+	c #9EEA76",
"]+	c #57C346",
"^+	c #0C9E09",
"/+	c #AFED8C",
"(+	c #A5EA81",
"_+	c #9BE973",
":+	c #9EE977",
"<+	c #A0EA7A",
"[+	c #A2EA7D",
"}+	c #A4EB7F",
"|+	c #A6EB82",
"1+	c #A8EC85",
"2+	c #A9EC85",
"3+	c #A9EC87",
"4+	c #AAEC88",
"5+	c #AAEC89",
"6+	c #A9EC86",
"7+	c #A7EB84",
"8+	c #A3EB7F",
"9+	c #99E86F",
"0+	c #55C244",
"a+	c #11A00E",
"b+	c #B0ED8D",
"c+	c #A2E87F",
"d+	c #98E66F",
"e+	c #9BE673",
"f+	c #9CE775",
"g+	c #9EE878",
"h+	c #A0E87A",
"i+	c #A1E87C",
"j+	c #A3E97E",
"k+	c #A3E97F",
"l+	c #A4E980",
"m+	c #A2E87D",
"n+	c #9FE87A",
"o+	c #9EE777",
"p+	c #9CE774",
"q+	c #95E56C",
"r+	c #92E568",
"s+	c #A3E87F",
"t+	c #4FC03F",
"u+	c #11A00D",
"v+	c #A8E985",
"w+	c #9FE77A",
"x+	c #93E369",
"y+	c #96E56E",
"z+	c #98E570",
"A+	c #9AE572",
"B+	c #9BE674",
"C+	c #9CE676",
"D+	c #9DE576",
"E+	c #9DE677",
"F+	c #9EE778",
"G+	c #A6E883",
"H+	c #ACE98C",
"I+	c #ACE98B",
"J+	c #ABE989",
"K+	c #AAE988",
"L+	c #A9E886",
"M+	c #A7E884",
"N+	c #A5E882",
"O+	c #A3E77F",
"P+	c #A1E77C",
"Q+	c #A1E77B",
"R+	c #AFEE89",
"S+	c #10A00C",
"T+	c #14A210",
"U+	c #9FE47D",
"V+	c #9CE476",
"W+	c #8FE164",
"X+	c #92E268",
"Y+	c #93E26A",
"Z+	c #94E26C",
"`+	c #96E36E",
" @	c #96E36F",
".@	c #97E36F",
"+@	c #97E46F",
"@@	c #98E471",
"#@	c #ACE88E",
"$@	c #59C049",
"%@	c #57C246",
"&@	c #56C146",
"*@	c #56C145",
"=@	c #55C145",
"-@	c #54C144",
";@	c #54C043",
">@	c #53C042",
",@	c #52C041",
"'@	c #4EBE3D",
")@	c #9FE47C",
"!@	c #99E273",
"~@	c #8CDF60",
"{@	c #8EE063",
"]@	c #8FDF64",
"^@	c #8FE065",
"/@	c #90E167",
"(@	c #91E168",
"_@	c #91E068",
":@	c #92E16A",
"<@	c #A5E686",
"[@	c #049903",
"}@	c #12A00E",
"|@	c #A2E47D",
"1@	c #95E06E",
"2@	c #87DC5B",
"3@	c #88DD5C",
"4@	c #89DD5E",
"5@	c #8ADD5F",
"6@	c #8BDD60",
"7@	c #8CDD62",
"8@	c #A0E380",
"9@	c #109F0C",
"0@	c #9FE379",
"a@	c #91DE68",
"b@	c #81D953",
"c@	c #84DA56",
"d@	c #84DA57",
"e@	c #84DA58",
"f@	c #86DB5A",
"g@	c #9CE17A",
"h@	c #119F0D",
"i@	c #94DE6F",
"j@	c #8CDB63",
"k@	c #7CD64C",
"l@	c #7ED750",
"m@	c #7ED850",
"n@	c #80D853",
"o@	c #98DF74",
"p@	c #13A00E",
"q@	c #8EDB6A",
"r@	c #88D95F",
"s@	c #78D447",
"t@	c #79D549",
"u@	c #7AD549",
"v@	c #7BD54C",
"w@	c #93DC6E",
"x@	c #90DC69",
"y@	c #84D75A",
"z@	c #73D243",
"A@	c #74D243",
"B@	c #75D346",
"C@	c #91DB69",
"D@	c #0E9E0A",
"E@	c #91DC67",
"F@	c #81D554",
"G@	c #6ECF3C",
"H@	c #71D040",
"I@	c #8BD864",
"J@	c #049902",
"K@	c #8BD862",
"L@	c #83D559",
"M@	c #87D75D",
"N@	c #76CF53",
"O@	c #019900",
"P@	c #099D07",
"Q@	c #42B62E",
"R@	c #3AB329",
"                                                                        ",
"                                                                        ",
"                                . . .                                   ",
"                              . . . . . .                               ",
"                            . . + @ # $ . .                             ",
"                          . % & * = - ; > .                             ",
"                        . . , ' ) ! ~ { ] .                             ",
"                      . . ^ / ( _ : < [ ] .                             ",
"                    . . } | 1 2 1 3 4 5 6 .                             ",
"                  . . 7 8 9 0 a b c d e 6 .                             ",
"                . . f g h i j k l m n o 6 .                             ",
"              . . p q r s t u v w x y z 6 . . . . . . . . . %           ",
"            . . A B C D E F G H I J K L M . . . . . . . . . . .         ",
"          . . p N O P Q R S T U C F V W X Y Z `  ...+.@.#.$.%.% .       ",
"        . % %.&.*.=.-.*.;.>.,.'.).!.~.{.].^./.(._.:.&.<.*.[.}.|.. %     ",
"      . . %.1.2.3.4.5.6.7.8.*.9.0.0.0.0.9.*.a.b.c.5.d.e.f.g.h.i.. .     ",
"    % . j.2.k.l.m.n.o.p.q.r.s.t.u.v.w.u.t.s.r.x.y.o.n.m.z.A.B.C.. .     ",
"    . . D.E.F.G.H.I.J.K.L.M.N.O.P.Q.Q.P.R.S.T.U.K.V.I.W.X.Y.Z.`.. .     ",
"    . .  +.+++@+#+$+%+&+*+=+-+;+>+E.E.>+;+-+=+,+&+'+)+!+~+{+I.]+. .     ",
"    % . ^+/+(+_+:+<+[+}+|+1+2+3+4+5+5+4+6+2+7+|+8+[+<+:+_+9+|+0+. .     ",
"      . . a+b+c+d+e+f+g+h+i+j+k+l+l+l+l+k+m+i+n+o+p+e+d+q+r+s+t+. .     ",
"        . . u+v+w+x+y+z+A+B+C+D+E+F+E+G+H+I+J+K+L+M+N+O+P+Q+R+S+. %     ",
"          . . T+U+V+W+X+Y+Z+`+ @.@+@@@#@$@%@&@*@=@-@;@>@,@'@S+. .       ",
"            . . T+)@!@~@{@]@^@/@(@_@:@<@[@. . . . . . . . . . .         ",
"              . . }@|@1@2@3@4@5@6@6@7@8@[@. . . . . . . . . %           ",
"                . . 9@0@a@b@c@d@e@e@f@g@[@.                             ",
"                  . . h@i@j@k@l@l@m@n@o@[@.                             ",
"                    . . p@q@r@s@t@u@v@w@[@.                             ",
"                      . . u+x@y@z@A@B@C@[@.                             ",
"                        . . D@E@F@G@H@I@J@.                             ",
"                          . . D@K@L@M@N@O@.                             ",
"                            . . P@Q@R@$ . .                             ",
"                              . . . . . .                               ",
"                                . . .                                   ",
"                                                                        ",
"                                                                        "};
