/* XPM */
static const char *editDoc_xpm[] = {
"18 18 129 2",
"  	c None",
". 	c #0066CC",
"+ 	c #0F67BF",
"@ 	c #66707C",
"# 	c #666F7B",
"$ 	c #0066CB",
"% 	c #847B9B",
"& 	c #3476C2",
"* 	c #277BD0",
"= 	c #FFFFFC",
"- 	c #F8F8F9",
"; 	c #FCFCFC",
"> 	c #959BA4",
", 	c #67707C",
"' 	c #0065CB",
") 	c #3764A9",
"! 	c #F7E1D9",
"~ 	c #428CD7",
"{ 	c #2C80D4",
"] 	c #FFFFFF",
"^ 	c #FEFEFE",
"/ 	c #CED0D4",
"( 	c #8A919B",
"_ 	c #656E7A",
": 	c #0E68C0",
"< 	c #3D89D5",
"[ 	c #9ACCF5",
"} 	c #3184D7",
"| 	c #2B7FD4",
"1 	c #FDFDFD",
"2 	c #CCCFD3",
"3 	c #C5C9CD",
"4 	c #899099",
"5 	c #646D79",
"6 	c #6C7178",
"7 	c #196FC5",
"8 	c #1B7AD4",
"9 	c #9ACCF4",
"0 	c #257CD4",
"a 	c #2C7ED4",
"b 	c #F9FBFC",
"c 	c #FFFFFE",
"d 	c #CBCFD3",
"e 	c #C1C5C9",
"f 	c #888F98",
"g 	c #E3E0DE",
"h 	c #287DD2",
"i 	c #1675D2",
"j 	c #98CBF4",
"k 	c #1F78D2",
"l 	c #2B7FD3",
"m 	c #F2F3F3",
"n 	c #C8CBD0",
"o 	c #C8CBCF",
"p 	c #CBCED2",
"q 	c #8E959E",
"r 	c #D5D7DA",
"s 	c #F7F7F7",
"t 	c #297DD2",
"u 	c #1474D1",
"v 	c #99CBF4",
"w 	c #2C80D5",
"x 	c #FFFFFA",
"y 	c #F9F9F9",
"z 	c #F8F8F8",
"A 	c #D6D8DB",
"B 	c #D3D5D8",
"C 	c #F4F4F4",
"D 	c #F1F2F3",
"E 	c #287CD1",
"F 	c #1978D3",
"G 	c #9ACDF5",
"H 	c #3385D7",
"I 	c #2B7ED2",
"J 	c #FCF9F5",
"K 	c #F4F4F5",
"L 	c #D1D3D6",
"M 	c #F0F0F0",
"N 	c #F8F5F2",
"O 	c #1D7AD5",
"P 	c #2A7DD2",
"Q 	c #ECEEEF",
"R 	c #CFD1D4",
"S 	c #EBEBEB",
"T 	c #EDEDED",
"U 	c #EEEEEE",
"V 	c #FCF6EF",
"W 	c #287CD0",
"X 	c #9BCCF3",
"Y 	c #2076CC",
"Z 	c #71A6DB",
"` 	c #F1EFEC",
" .	c #CCCED1",
"..	c #E7E7E7",
"+.	c #E8E8E8",
"@.	c #E9E9E9",
"#.	c #F0EDE9",
"$.	c #267ACF",
"%.	c #2075C9",
"&.	c #F9E6BC",
"*.	c #0063CA",
"=.	c #BECFE2",
"-.	c #C9CCCE",
";.	c #E2E2E2",
">.	c #E3E3E3",
",.	c #E4E4E4",
"'.	c #E5E5E5",
").	c #E4E4E5",
"!.	c #E1E2E4",
"~.	c #69A0D7",
"{.	c #096AC9",
"].	c #74A5D7",
"^.	c #CACCCE",
"/.	c #C7C9CC",
"(.	c #DEDEDE",
"_.	c #DFDFDF",
":.	c #E0E0E0",
"<.	c #E5E3E1",
"[.	c #B4C7DB",
"}.	c #71A2D4",
"|.	c #D2D8DD",
"1.	c #C4C6C9",
"2.	c #DADADA",
"3.	c #DBDBDB",
"4.	c #67707B",
"5.	c #7C848D",
"6.	c #DBDBDC",
"7.	c #DBDCDC",
"8.	c #676F7B",
"                                    ",
"    . + @ # # # # # #               ",
"  $ % & * = - - - ; > ,             ",
"  ' ) ! ~ { ] ^ ] ] / ( _           ",
"    : < [ } | ^ 1 ] 2 3 4 5         ",
"    6 7 8 9 0 a b c d e 3 f _       ",
"    , g h i j k l = m n o p q ,     ",
"    , r s t u v w l x y z s A ,     ",
"    , B C D E F G H I J K C B ,     ",
"    , L M M N E O [ w P Q M L ,     ",
"    , R S T U V W F X Y Z ` R ,     ",
"    ,  ...+.+.@.#.$.%.&.*.=. .,     ",
"    , -.;.>.,.'.).!.~.*.{.].^.,     ",
"    , /.(._._.:.:.:.<.[.}.|./.,     ",
"    , 1.2.3.3.3.3.3.3.3.3.2.1.,     ",
"    4.5.6.7.7.7.7.7.7.7.7.6.5.4.    ",
"      8.# # # # # # # # # # 8.      ",
"                                    "};
