/* XPM */
static const char * equal_xpm[] = {
"36 36 51 1",
" 	c None",
".	c #009700",
"+	c #049A03",
"@	c #079A07",
"#	c #049A04",
"$	c #009800",
"%	c #13A112",
"&	c #68C85F",
"*	c #8DDB80",
"=	c #8EDA81",
"-	c #8EDB81",
";	c #73CD68",
">	c #1EA61B",
",	c #66C85C",
"'	c #D6FEBE",
")	c #D1FEB8",
"!	c #D1FDB7",
"~	c #DAFFC0",
"{	c #80D474",
"]	c #009900",
"^	c #70CC64",
"/	c #C7F8AC",
"(	c #BCF4A0",
"_	c #BCF49F",
":	c #C7F8AA",
"<	c #8AD87A",
"[	c #099B08",
"}	c #6AC85C",
"|	c #BBF09C",
"1	c #B0ED91",
"2	c #BBF19C",
"3	c #81D470",
"4	c #63C554",
"5	c #AEE98E",
"6	c #A3E57F",
"7	c #AEE98B",
"8	c #7ACF67",
"9	c #089C07",
"0	c #38B02F",
"a	c #8DD771",
"b	c #94DB74",
"c	c #94DB75",
"d	c #92D975",
"e	c #49B83C",
"f	c #019901",
"g	c #029902",
"h	c #1BA416",
"i	c #27AA20",
"j	c #28AA21",
"k	c #1EA619",
"l	c #059B04",
"                                    ",
"                                    ",
"                                    ",
"                                    ",
"                                    ",
"                                    ",
"                                    ",
"                                    ",
"     .+@@@@@@@@@@@@@@@@@@@@@@#$     ",
"    $%&*====================-;>$    ",
"   .$,')!!!!!!!!!!!!!!!!!!!!!~{#$   ",
"   ]$^/(((((((((((((((((((((_:<[]   ",
"   ]$}|111111111111111111111123[]   ",
"   $$456666666666666666666666789$   ",
"    $0abccccccccccccccccccccbdef.   ",
"    .ghijjjjjjjjjjjjjjjjjjjjjkl.    ",
"      $$]]]]]]]]]]]]]]]]]]]]].      ",
"                                    ",
"     .+@@@@@@@@@@@@@@@@@@@@@@#$     ",
"    $%&*====================-;>$    ",
"   .$,')!!!!!!!!!!!!!!!!!!!!!~{#$   ",
"   ]$^/(((((((((((((((((((((_:<[]   ",
"   ]$}|111111111111111111111123[]   ",
"   $$456666666666666666666666789$   ",
"    $0abccccccccccccccccccccbdef.   ",
"    .ghijjjjjjjjjjjjjjjjjjjjjkl.    ",
"      $$]]]]]]]]]]]]]]]]]]]]].      ",
"                                    ",
"                                    ",
"                                    ",
"                                    ",
"                                    ",
"                                    ",
"                                    ",
"                                    ",
"                                    "};
