/* XPM */
static const char * folder_xpm[] = {
"18 18 117 2",
"  	c None",
". 	c #67707C",
"+ 	c #666F7B",
"@ 	c #878D97",
"# 	c #B8BCC2",
"$ 	c #999FA7",
"% 	c #68717D",
"& 	c #68707D",
"* 	c #626C78",
"= 	c #DDDFE2",
"- 	c #FDFDFD",
"; 	c #FEFEFE",
"> 	c #FFFFFF",
", 	c #A6ABB2",
"' 	c #AEB4BA",
") 	c #B0B5BC",
"! 	c #747D87",
"~ 	c #636C78",
"{ 	c #D0D6DA",
"] 	c #EFF3F5",
"^ 	c #F1F5F6",
"/ 	c #F3F6F7",
"( 	c #F4F7F9",
"_ 	c #F7F9FA",
": 	c #F5F8F9",
"< 	c #F3F6F8",
"[ 	c #CFD5DA",
"} 	c #646D79",
"| 	c #C0CAD1",
"1 	c #DBE5E9",
"2 	c #E0E8EC",
"3 	c #E3EBEE",
"4 	c #E6EDF0",
"5 	c #E9EFF1",
"6 	c #EAF0F3",
"7 	c #E7EDF1",
"8 	c #E4EBEE",
"9 	c #DFE9EC",
"0 	c #DBE6E9",
"a 	c #C0CBD1",
"b 	c #646C79",
"c 	c #BCC6CC",
"d 	c #D4DEE3",
"e 	c #D9E2E6",
"f 	c #DCE5E9",
"g 	c #DFE7EA",
"h 	c #E2E9EC",
"i 	c #E3EAED",
"j 	c #E0E7EB",
"k 	c #B6C0C7",
"l 	c #CAD5DB",
"m 	c #CFD9DE",
"n 	c #D3DCE0",
"o 	c #D5DEE3",
"p 	c #D8E0E4",
"q 	c #D9E1E5",
"r 	c #D9E0E4",
"s 	c #D6DEE3",
"t 	c #D3DCE1",
"u 	c #B6C1C7",
"v 	c #AFB9C1",
"w 	c #C3CED4",
"x 	c #C7D1D6",
"y 	c #CAD3D9",
"z 	c #CCD5DA",
"A 	c #CDD6DB",
"B 	c #CAD3D8",
"C 	c #C7D1D7",
"D 	c #C4CED4",
"E 	c #BFCAD1",
"F 	c #646D7A",
"G 	c #A8B3BA",
"H 	c #B2BEC5",
"I 	c #B7C2C9",
"J 	c #BAC5CB",
"K 	c #BDC7CE",
"L 	c #BFC8CF",
"M 	c #C0C9CF",
"N 	c #BDC7CD",
"O 	c #BBC5CB",
"P 	c #B3BFC5",
"Q 	c #A8B3BB",
"R 	c #656E7A",
"S 	c #A1ABB4",
"T 	c #A6B1B9",
"U 	c #A9B4BC",
"V 	c #ACB7BE",
"W 	c #AFB9C0",
"X 	c #B1BBC2",
"Y 	c #B1BBC3",
"Z 	c #B2BBC2",
"` 	c #B0BBC2",
" .	c #AAB5BD",
"..	c #9AA5AD",
"+.	c #99A5AD",
"@.	c #9CA8B0",
"#.	c #9FAAB3",
"$.	c #A1ACB4",
"%.	c #A2ADB5",
"&.	c #A4AEB6",
"*.	c #A3ADB5",
"=.	c #A0AAB3",
"-.	c #9DA7B0",
";.	c #99A5AE",
">.	c #9AA4AD",
",.	c #97A1AA",
"'.	c #8D99A3",
").	c #8F9BA5",
"!.	c #919CA6",
"~.	c #939DA7",
"{.	c #949EA8",
"].	c #949FA8",
"^.	c #939EA7",
"/.	c #757E89",
"(.	c #89929C",
"_.	c #89919B",
":.	c #88919B",
"                                    ",
"                                    ",
"    . + + + + + .                   ",
"  . @ # # # # # $ + % & & & %       ",
"  * = - ; ; ; ; > , ' ' ' ' ) ! .   ",
"  ~ { ] ^ / ( _ _ _ _ : < ^ ] [ ~   ",
"  } | 1 2 3 4 5 6 6 5 7 8 9 0 a b   ",
"  } c d e f g h i i h j f e d c }   ",
"  } k l m n o p q q r s t m l u }   ",
"  } v | w x y z A A z B C D E v }   ",
"  F G H I J K L M M L N O I P Q F   ",
"  R S T U V W X Y Z ` v V  .T S R   ",
"  R ..+.@.#.$.%.&.&.*.$.=.-.;.>.R   ",
"  R ,.'.).!.~.{.{.{.].^.!.).'.,.R   ",
"  . /.(._.:.:.:.(.(.:.:.:._.(./..   ",
"    . . . . . . . . . . . . . .     ",
"                                    ",
"                                    "};
