/* XPM */
static const char * persons_xpm[] = {
"36 36 501 2",
"  	c None",
". 	c #CB9800",
"+ 	c #CC9900",
"@ 	c #C99400",
"# 	c #D6AA2E",
"$ 	c #E1C166",
"% 	c #E5C877",
"& 	c #E3C56E",
"* 	c #DAB343",
"= 	c #CB9700",
"- 	c #CC9800",
"; 	c #D5AA2C",
"> 	c #FAEDCE",
", 	c #FFFCF5",
"' 	c #FFF8EC",
") 	c #FFF9EC",
"! 	c #FFFAF1",
"~ 	c #FFF8EB",
"{ 	c #DEBA53",
"] 	c #E0BC58",
"^ 	c #FFF3DF",
"/ 	c #FFF3DE",
"( 	c #FFF4E2",
"_ 	c #FFF5E3",
": 	c #FEF3DF",
"< 	c #FDF4DE",
"[ 	c #FCF0DA",
"} 	c #F1DDAD",
"| 	c #DCB446",
"1 	c #FFF2D8",
"2 	c #FFEFD0",
"3 	c #FFF0D5",
"4 	c #FFF2DA",
"5 	c #FFF2DC",
"6 	c #FFFAE8",
"7 	c #C8A668",
"8 	c #A17014",
"9 	c #9D6906",
"0 	c #9A6601",
"a 	c #9A6500",
"b 	c #9A6700",
"c 	c #9C6800",
"d 	c #A26F00",
"e 	c #CC9902",
"f 	c #FFEECE",
"g 	c #FFEBC9",
"h 	c #FFECCA",
"i 	c #FFEECF",
"j 	c #FFF5DB",
"k 	c #DEC594",
"l 	c #9F6C0B",
"m 	c #986300",
"n 	c #996500",
"o 	c #945D00",
"p 	c #945E00",
"q 	c #935B00",
"r 	c #966100",
"s 	c #9A6600",
"t 	c #E4C161",
"u 	c #FFEBC7",
"v 	c #FFE8BD",
"w 	c #FFEAC3",
"x 	c #FFF0CE",
"y 	c #CFAE6F",
"z 	c #935D00",
"A 	c #9F6C08",
"B 	c #C5A151",
"C 	c #EDDCA4",
"D 	c #FFF9D4",
"E 	c #FFFEDE",
"F 	c #FBF1C7",
"G 	c #DEC583",
"H 	c #B2882F",
"I 	c #966000",
"J 	c #F2D592",
"K 	c #FFE6B9",
"L 	c #FFE5B5",
"M 	c #FFE7BA",
"N 	c #D7B677",
"O 	c #955F00",
"P 	c #AA7D1F",
"Q 	c #FFF4B7",
"R 	c #FEF1BB",
"S 	c #FEF1BC",
"T 	c #FEF2BF",
"U 	c #FFF2C0",
"V 	c #FEF2BE",
"W 	c #FEF1BD",
"X 	c #FFF4BD",
"Y 	c #EBD48B",
"Z 	c #9D6905",
"` 	c #F7D999",
" .	c #FFE3AD",
"..	c #FFE2AC",
"+.	c #FFE7B6",
"@.	c #9C6805",
"#.	c #B28527",
"$.	c #FDEAA2",
"%.	c #FDE99E",
"&.	c #FDEBA3",
"*.	c #FDEDAC",
"=.	c #FEEFB3",
"-.	c #FEEFB4",
";.	c #FDEEB1",
">.	c #FDEDAA",
",.	c #FDEAA0",
"'.	c #FDEBA6",
").	c #F9E699",
"!.	c #F7D893",
"~.	c #FFE0A5",
"{.	c #FFE1A4",
"].	c #B3852D",
"^.	c #A3710D",
"/.	c #FEE994",
"(.	c #FBE388",
"_.	c #FBE48D",
":.	c #FBE799",
"<.	c #FCE9A1",
"[.	c #FCEBA6",
"}.	c #FCEBA7",
"|.	c #FCEAA5",
"1.	c #FCE89F",
"2.	c #FBE695",
"3.	c #FBE38A",
"4.	c #FCE694",
"5.	c #D9B75A",
"6.	c #F3D081",
"7.	c #FFDE9F",
"8.	c #FBD893",
"9.	c #996501",
"0.	c #D4B04E",
"a.	c #F8DF81",
"b.	c #F8DD76",
"c.	c #F8E082",
"d.	c #F9E28C",
"e.	c #F9E493",
"f.	c #FAE698",
"g.	c #FAE599",
"h.	c #F9E596",
"i.	c #FAE491",
"j.	c #F9E289",
"k.	c #F8DF7E",
"l.	c #F8DC73",
"m.	c #FFE98D",
"n.	c #A77612",
"o.	c #996600",
"p.	c #E6BC53",
"q.	c #FFDFA0",
"r.	c #F3CD7E",
"s.	c #F4D873",
"t.	c #F5D667",
"u.	c #F6D76A",
"v.	c #F6DB75",
"w.	c #F7DD7E",
"x.	c #F7DE84",
"y.	c #F7DF88",
"z.	c #F7E088",
"A.	c #F8DF87",
"B.	c #F7DE82",
"C.	c #F7DC7A",
"D.	c #F6D972",
"E.	c #F5D666",
"F.	c #F7DA74",
"G.	c #D1AB45",
"H.	c #FFE0A1",
"I.	c #E2BB68",
"J.	c #F9DD73",
"K.	c #F2CE50",
"L.	c #F2D25D",
"M.	c #F3D567",
"N.	c #F4D66E",
"O.	c #F4D874",
"P.	c #F5D978",
"Q.	c #F5DA78",
"R.	c #F5D977",
"S.	c #F4D872",
"T.	c #F4D66C",
"U.	c #F3D463",
"V.	c #F2D15A",
"W.	c #F2D361",
"X.	c #E0BE54",
"Y.	c #986400",
"Z.	c #C99900",
"`.	c #DEB137",
" +	c #DCB667",
".+	c #A3720D",
"++	c #F5D767",
"@+	c #ECC743",
"#+	c #EECB50",
"$+	c #EFCD58",
"%+	c #EFCF5F",
"&+	c #F0D164",
"*+	c #F0D267",
"=+	c #F0D266",
"-+	c #F0D163",
";+	c #EFCE5D",
">+	c #EECD55",
",+	c #EDCA4C",
"'+	c #E2BF52",
")+	c #986200",
"!+	c #009900",
"~+	c #569900",
"{+	c #D39900",
"]+	c #CB9B25",
"^+	c #9F6C07",
"/+	c #F1D25F",
"(+	c #E8C036",
"_+	c #E9C441",
":+	c #EAC64A",
"<+	c #EBC84F",
"[+	c #EBC953",
"}+	c #ECCA56",
"|+	c #ECCA57",
"1+	c #ECC955",
"2+	c #EBC852",
"3+	c #EBC74E",
"4+	c #EAC547",
"5+	c #E9C33F",
"6+	c #DBB647",
"7+	c #15A716",
"8+	c #B9B228",
"9+	c #CD9600",
"0+	c #C79300",
"a+	c #956000",
"b+	c #E7C451",
"c+	c #E5BD35",
"d+	c #E5BB33",
"e+	c #E6BE3A",
"f+	c #E7C040",
"g+	c #E7C143",
"h+	c #E7C146",
"i+	c #E7C247",
"j+	c #E7C245",
"k+	c #E7C142",
"l+	c #E6BF3E",
"m+	c #E5BD39",
"n+	c #E4BB31",
"o+	c #E8C349",
"p+	c #CAA030",
"q+	c #28AD1E",
"r+	c #B3FB8A",
"s+	c #ADFF91",
"t+	c #C0BA2D",
"u+	c #C89F2E",
"v+	c #E4BE43",
"w+	c #DFB426",
"x+	c #E1B62C",
"y+	c #E1B831",
"z+	c #E2B934",
"A+	c #E2B936",
"B+	c #E2BA37",
"C+	c #E1B933",
"D+	c #E1B72F",
"E+	c #E1B52A",
"F+	c #E0B324",
"G+	c #E9C64F",
"H+	c #A7750D",
"I+	c #1DA716",
"J+	c #A7F57C",
"K+	c #96F367",
"L+	c #9AF46B",
"M+	c #A3F579",
"N+	c #B2E670",
"O+	c #A77201",
"P+	c #A06D06",
"Q+	c #E6C24A",
"R+	c #DCB026",
"S+	c #DBAE1F",
"T+	c #DCAF23",
"U+	c #DCB128",
"V+	c #DCB127",
"W+	c #DCB027",
"X+	c #DCB025",
"Y+	c #DBAF21",
"Z+	c #DAAD1D",
"`+	c #DFBA41",
" @	c #C89E2D",
".@	c #009500",
"+@	c #97EB6F",
"@@	c #93ED64",
"#@	c #89EC56",
"$@	c #91EE60",
"%@	c #9BF16A",
"&@	c #86D987",
"*@	c #1671C1",
"=@	c #986604",
"-@	c #AD7D12",
";@	c #E0BA42",
">@	c #D9AD25",
",@	c #D6A713",
"'@	c #D7A918",
")@	c #D7A919",
"!@	c #D8A91A",
"~@	c #D7A817",
"{@	c #D6A714",
"]@	c #DCB438",
"^@	c #DBB43C",
"/@	c #9B6702",
"(@	c #9B6600",
"_@	c #7E662A",
":@	c #0066CB",
"<@	c #2BAF20",
"[@	c #9FED73",
"}@	c #80E54B",
"|@	c #81E54D",
"1@	c #89E950",
"2@	c #5DBB84",
"3@	c #005ED1",
"4@	c #426474",
"5@	c #9E6400",
"6@	c #AE7E12",
"7@	c #DBB43D",
"8@	c #DAB133",
"9@	c #D6A820",
"0@	c #D4A617",
"a@	c #D3A514",
"b@	c #D4A619",
"c@	c #D7AC27",
"d@	c #DDB63C",
"e@	c #CBA12C",
"f@	c #9A6701",
"g@	c #906308",
"h@	c #0062CB",
"i@	c #50C13A",
"j@	c #8FE463",
"k@	c #7ADE46",
"l@	c #60C266",
"m@	c #005DD4",
"n@	c #1673D0",
"o@	c #A4D5FF",
"p@	c #A59B75",
"q@	c #9A6300",
"r@	c #976300",
"s@	c #BF9120",
"t@	c #D1A731",
"u@	c #D5AD36",
"v@	c #D7AF38",
"w@	c #D4AB34",
"x@	c #CCA22C",
"y@	c #AE7D11",
"z@	c #976200",
"A@	c #9A6706",
"B@	c #B3CAD4",
"C@	c #66A7E8",
"D@	c #0065CB",
"E@	c #009800",
"F@	c #5EC643",
"G@	c #85DC57",
"H@	c #74D840",
"I@	c #79DD39",
"J@	c #076BC4",
"K@	c #1370D0",
"L@	c #A4D2FB",
"M@	c #9CCEFA",
"N@	c #99CEFF",
"O@	c #A0B2B0",
"P@	c #9A6503",
"Q@	c #9B6F1A",
"R@	c #A1CDF2",
"S@	c #98CBFA",
"T@	c #A5D2FA",
"U@	c #87BFF2",
"V@	c #0065CA",
"W@	c #0066CA",
"X@	c #5BC340",
"Y@	c #7FD752",
"Z@	c #6CD137",
"`@	c #349789",
" #	c #0064CE",
".#	c #0367CC",
"+#	c #98CCF7",
"@#	c #88C3F7",
"##	c #83C1F6",
"$#	c #8CC5F6",
"%#	c #96CBF9",
"&#	c #A1CBEC",
"*#	c #A3A083",
"=#	c #9A6502",
"-#	c #985F00",
";#	c #9E6600",
">#	c #9C6600",
",#	c #9B6300",
"'#	c #985E00",
")#	c #9D7728",
"!#	c #A5BFCA",
"~#	c #9ECEF8",
"{#	c #93C9F8",
"]#	c #89C4F6",
"^#	c #82C0F5",
"/#	c #98CBF8",
"(#	c #4492DE",
"_#	c #0064CA",
":#	c #5FC442",
"<#	c #91DC64",
"[#	c #91DB65",
"}#	c #0C6EC5",
"|#	c #3A8CDB",
"1#	c #8CC5F4",
"2#	c #71B8F1",
"3#	c #74B9F2",
"4#	c #7CBDF2",
"5#	c #86C2F3",
"6#	c #90C6F4",
"7#	c #9BCEFA",
"8#	c #A4D3FC",
"9#	c #BFD3DB",
"0#	c #3C74A6",
"a#	c #28669D",
"b#	c #99B4C4",
"c#	c #B1D3EB",
"d#	c #A2D5FF",
"e#	c #98CBF6",
"f#	c #8DC6F4",
"g#	c #83C0F3",
"h#	c #7ABBF2",
"i#	c #73B8F1",
"j#	c #76B9F1",
"k#	c #97CCF6",
"l#	c #0568CC",
"m#	c #089C05",
"n#	c #0C9D09",
"o#	c #0C9D0C",
"p#	c #0068C6",
"q#	c #0061C9",
"r#	c #6CAFEA",
"s#	c #73B7EF",
"t#	c #65B0ED",
"u#	c #6BB3EE",
"v#	c #7DBCF0",
"w#	c #86C1F1",
"x#	c #8DC4F2",
"y#	c #A4D1F5",
"z#	c #76B2E8",
"A#	c #A3CFF3",
"B#	c #98CAF3",
"C#	c #8CC4F2",
"D#	c #83C0F1",
"E#	c #7ABBF0",
"F#	c #71B6EE",
"G#	c #68B2EE",
"H#	c #64B0ED",
"I#	c #83BFF1",
"J#	c #3186D9",
"K#	c #009707",
"L#	c #7EBEEE",
"M#	c #5DACE9",
"N#	c #5AAAE9",
"O#	c #5BABE9",
"P#	c #60AEEB",
"Q#	c #68B2EC",
"R#	c #70B6EC",
"S#	c #77B9ED",
"T#	c #83C0EF",
"U#	c #92C6EF",
"V#	c #237BD3",
"W#	c #9DCEF2",
"X#	c #7ABBED",
"Y#	c #75B8ED",
"Z#	c #6EB5EB",
"`#	c #66B0EB",
" $	c #5FADEA",
".$	c #74B8ED",
"+$	c #4998DF",
"@$	c #0062C9",
"#$	c #79BBEC",
"$$	c #4FA3E6",
"%$	c #4EA3E6",
"&$	c #4FA5E5",
"*$	c #55A6E6",
"=$	c #5AAAE7",
"-$	c #60ADE8",
";$	c #66B0E9",
">$	c #86C0ED",
",$	c #73B4E8",
"'$	c #77B9EB",
")$	c #63AFE8",
"!$	c #5EACE7",
"~$	c #58A9E7",
"{$	c #53A6E6",
"]$	c #4FA4E6",
"^$	c #66AFE8",
"/$	c #4A98DF",
"($	c #0062CA",
"_$	c #70B6EA",
":$	c #5DABE6",
"<$	c #60ACE6",
"[$	c #63AEE7",
"}$	c #66AFE7",
"|$	c #72B6E9",
"1$	c #74B7EA",
"2$	c #6AB1E8",
"3$	c #65AFE7",
"4$	c #62ADE6",
"5$	c #5FACE6",
"6$	c #4495DE",
"7$	c #0063CA",
"8$	c #4596DD",
"9$	c #4294DC",
"0$	c #4394DC",
"a$	c #4395DC",
"b$	c #2B83D6",
"                                                                        ",
"                                                                        ",
"                          . . + + .                                     ",
"                      + + + + + + + + + .                               ",
"                  . + + @ # $ % & * = - + +                             ",
"                . + - ; > , ' ) ' ! ~ { . + +                           ",
"                + . ] ^ / / ( _ _ : < [ } . + +                         ",
"              + + | 1 2 3 4 5 6 7 8 9 0 a b c d                         ",
"              + e f g h i j k l m n o o p q r s s s                     ",
"            + + t u v w x y z s A B C D E F G H I s s                   ",
"            + . J K L M N O a P Q R S T U V W X Y Z s s                 ",
"            + = `  ...+.@.s #.$.%.&.*.=.-.;.>.,.'.).0 s s               ",
"            + = !.~.{.].n ^./.(._.:.<.[.}.|.1.2.3.4.5.r s               ",
"            + . 6.7.8.9.n 0.a.b.c.d.e.f.g.h.i.j.k.l.m.n.s o.            ",
"            + + p.q.r.s p s.t.u.v.w.x.y.z.A.B.C.D.E.F.G.s s             ",
"              + + H.I.s A J.K.L.M.N.O.P.Q.R.S.T.U.V.W.X.Y.s             ",
"              Z.+ `. +s .+++@+#+$+%+&+*+*+=+-+;+>+,+#+'+)+s             ",
"            !+~+{+- ]+s ^+/+(+_+:+<+[+}+|+1+2+3+4+5+:+6+Y.s             ",
"          !+!+7+8+9+0+s a+b+c+d+e+f+g+h+i+j+k+l+m+n+o+p+s s             ",
"        !+!+q+r+s+t+= s n u+v+w+x+y+z+A+B+A+C+D+E+F+G+H+s a             ",
"      !+!+I+J+K+L+M+N+O+s P+Q+R+S+T+R+U+V+W+X+Y+Z+`+ @m s               ",
"      !+.@+@@@#@$@%@&@*@=@n -@;@>@,@'@)@!@)@~@{@]@^@/@(@_@:@            ",
"    !+!+<@[@}@|@1@2@3@:@4@5@n 6@7@8@9@0@a@b@c@d@e@f@0 g@h@:@:@          ",
"    !+!+i@j@k@k@l@m@:@n@o@p@q@s r@s@t@u@v@w@x@y@z@s A@B@C@D@:@:@        ",
"    !+E@F@G@H@I@J@:@K@L@M@N@O@P@s s a m r@Y.s s s Q@R@S@T@U@V@:@W@      ",
"    !+E@X@Y@Z@`@ #.#+#@###$#%#&#*#=#-#;#>#,#'#)#!#~#{#]#^#/#(#_#:@      ",
"    !+E@:#<#[#}#:@|#1#2#3#4#5#6#7#8#9#0#a#b#c#d#e#f#g#h#i#j#k#l#:@      ",
"    !+!+m#n#o#p#q#r#s#t#t#u#s#v#w#x#y#z#q#A#B#C#D#E#F#G#t#H#I#J#:@W@    ",
"      !+!+!+K#:@q#L#M#N#N#O#P#Q#R#S#T#U#V#W#X#Y#Z#`# $N#N#N#.$+$D@:@    ",
"              :@@$#$$$%$%$%$&$*$=$-$;$>$,$'$)$!$~${$]$%$%$%$^$/$D@:@    ",
"              :@($_$:$:$:$:$:$:$<$[$}$|$1$2$3$4$5$:$:$:$:$:$3$6$D@:@    ",
"              :@7$8$9$9$9$9$9$9$9$9$9$0$a$0$9$9$9$9$9$9$9$9$9$b$D@:@    ",
"              :@:@D@D@D@D@D@D@D@D@D@D@D@D@D@D@D@D@D@D@D@D@D@D@D@:@W@    ",
"                :@:@:@:@:@:@:@:@:@:@:@:@:@:@:@:@:@:@:@:@:@:@:@:@V@      ",
"                                                                        ",
"                                                                        "};
