/* XPM */
static const char * person_xpm[] = {
"18 18 104 2",
"  	c None",
". 	c #CC9900",
"+ 	c #CB9600",
"@ 	c #CC9901",
"# 	c #CB9700",
"$ 	c #E5CA7D",
"% 	c #F2E1B3",
"& 	c #F2E1B4",
"* 	c #D4A621",
"= 	c #FFF4DF",
"- 	c #FFF2DC",
"; 	c #FFF5E2",
"> 	c #FFF2DD",
", 	c #CA9500",
"' 	c #FBE8C1",
") 	c #FFECCA",
"! 	c #FFF0D3",
"~ 	c #FFF1D7",
"{ 	c #FFF1D8",
"] 	c #FFECCB",
"^ 	c #FBE9C2",
"/ 	c #DAAF38",
"( 	c #FFE9BE",
"_ 	c #FFE9BF",
": 	c #FFEBC5",
"< 	c #FFEDCA",
"[ 	c #FFEDC9",
"} 	c #FFEBC6",
"| 	c #E4BF60",
"1 	c #FFE0A6",
"2 	c #FFE3B0",
"3 	c #FFE6B6",
"4 	c #FFE7B9",
"5 	c #FFE4B0",
"6 	c #FFE0A7",
"7 	c #E1B84E",
"8 	c #FFDC9A",
"9 	c #FFDE9E",
"0 	c #FFE0A3",
"a 	c #FFE1A6",
"b 	c #CF9D0B",
"c 	c #FFE0A0",
"d 	c #FFD88C",
"e 	c #FFD990",
"f 	c #FFDA93",
"g 	c #FFDA90",
"h 	c #CF9E0B",
"i 	c #BC9800",
"j 	c #E8BF56",
"k 	c #FFD582",
"l 	c #FFD47E",
"m 	c #FFD57F",
"n 	c #009300",
"o 	c #66C03C",
"p 	c #CD9100",
"q 	c #E3B846",
"r 	c #FFD989",
"s 	c #FFD580",
"t 	c #009600",
"u 	c #71D755",
"v 	c #A5F976",
"w 	c #ADEF77",
"x 	c #C9A719",
"y 	c #CA8F00",
"z 	c #D7A419",
"A 	c #ADEF78",
"B 	c #A6F977",
"C 	c #2FB023",
"D 	c #92EE5F",
"E 	c #8CEC5A",
"F 	c #9AEE6E",
"G 	c #A8F48A",
"H 	c #BDF39D",
"I 	c #83AC29",
"J 	c #BEF39E",
"K 	c #AAF48C",
"L 	c #9BEE6F",
"M 	c #8DEB5B",
"N 	c #009700",
"O 	c #69CE4C",
"P 	c #78DE44",
"Q 	c #7CDF48",
"R 	c #85E155",
"S 	c #91E465",
"T 	c #9AE672",
"U 	c #74CE62",
"V 	c #74CF62",
"W 	c #9BE773",
"X 	c #92E567",
"Y 	c #86E255",
"Z 	c #6DCE4C",
"` 	c #6ED438",
" .	c #6FD43A",
"..	c #70D43C",
"+.	c #77D646",
"@.	c #7ED84F",
"#.	c #8ADB65",
"$.	c #7FD850",
"%.	c #009800",
"&.	c #53BF3A",
"*.	c #68C947",
"=.	c #69CA48",
"-.	c #6BCA4B",
";.	c #69CA49",
"                                    ",
"              . + + .               ",
"          @ # $ % & $ # @           ",
"        @ * = - ; ; > = * @         ",
"        , ' ) ! ~ { ! ] ^ ,         ",
"        / ( _ : < [ } _ _ /         ",
"      . | 1 2 3 4 4 3 5 6 | .       ",
"      . 7 8 9 0 a a 0 9 8 7 .       ",
"        b c d e f f g d c h         ",
"        i j k l m m l k j i         ",
"      n o p q r s s r q p o n       ",
"    t u v w x y z z y x A B u t     ",
"    C D E F G H I I J K L M D C     ",
"  N O P Q R S T U V W X Y Q P O N   ",
"  N Z `  ...+.@.#.#.$.+... .` Z N   ",
"  %.&.*.*.*.*.=.-.-.;.*.*.*.*.&.%.  ",
"    %.N N N N N N N N N N N N %.    ",
"                                    "};
