/* XPM */
static char * plus_18x18_xpm[] = {
"18 18 55 1",
" 	c None",
".	c #009700",
"+	c #009600",
"@	c #ACE0A7",
"#	c #BBE8B4",
"$	c #37B034",
"%	c #EEFFE2",
"&	c #E5FED9",
"*	c #33AF30",
"=	c #E9FFDB",
"-	c #E0FDD1",
";	c #009900",
">	c #32AF2F",
",	c #E3FFD1",
"'	c #D9FCC6",
")	c #32AF2E",
"!	c #30AE2C",
"~	c #56BF4E",
"{	c #D9FCC4",
"]	c #D0F9BA",
"^	c #98DD89",
"/	c #D0F9B7",
"(	c #D0FAB8",
"_	c #CFF9B7",
":	c #C5F6AB",
"<	c #C6F6AC",
"[	c #9CE089",
"}	c #B9F29C",
"|	c #B9F29D",
"1	c #94DD7F",
"2	c #ADED8B",
"3	c #AEEE8C",
"4	c #82D56C",
"5	c #ADEC89",
"6	c #AEEC8A",
"7	c #ADEB8A",
"8	c #A1E87B",
"9	c #A1E87C",
"0	c #27AB21",
"a	c #26AA20",
"b	c #44B837",
"c	c #A1E67A",
"d	c #94E26B",
"e	c #24A91C",
"f	c #95E16C",
"g	c #87DB5C",
"h	c #22A819",
"i	c #8ADB5E",
"j	c #7CD74D",
"k	c #21A818",
"l	c #80D650",
"m	c #70D13E",
"n	c #009800",
"o	c #61C544",
"p	c #68C848",
"                  ",
"       .++.       ",
"      .@##@.      ",
"      $%&&%$      ",
"      *=--=*      ",
"     ;>,'',>;     ",
"  .)!!~{]]{~!!).  ",
" .^/((_:<<:_((/^. ",
" +[}||||||||||}[+ ",
" +12333333333321+ ",
" .45667899876654. ",
"  .0aabcddcbaa0.  ",
"     ;efggfe;     ",
"      hijjih      ",
"      klmmlk      ",
"      noppon      ",
"       n..n       ",
"                  "};
