/* XPM */
static const char * plus_xpm[] = {
"26 26 92 1",
" 	c None",
".	c #009800",
"+	c #009900",
"@	c #009700",
"#	c #67C264",
"$	c #A9E1A3",
"%	c #A6DFA0",
"&	c #38B135",
"*	c #F9FFEF",
"=	c #EBFFE0",
"-	c #ECFFE1",
";	c #49B846",
">	c #EBFFDF",
",	c #E3FED6",
"'	c #E4FED6",
")	c #48B844",
"!	c #E6FEDA",
"~	c #DFFDD0",
"{	c #E0FDD1",
"]	c #46B842",
"^	c #E3FED4",
"/	c #DBFCC8",
"(	c #DBFCC9",
"_	c #009600",
":	c #43B73F",
"<	c #DEFDCD",
"[	c #D4FAC1",
"}	c #D5FAC1",
"|	c #32AF2E",
"1	c #43B73E",
"2	c #41B63C",
"3	c #72CB68",
"4	c #D8FAC5",
"5	c #CEF9B8",
"6	c #CFF9B8",
"7	c #5BC153",
"8	c #DEFEC7",
"9	c #D1F9BD",
"0	c #D2F9BD",
"a	c #C9F7B0",
"b	c #C8F7AF",
"c	c #91DB82",
"d	c #C4F6AA",
"e	c #C0F4A4",
"f	c #BFF4A4",
"g	c #C0F4A5",
"h	c #89D879",
"i	c #BDF3A0",
"j	c #B8F19B",
"k	c #85D673",
"l	c #B5F095",
"m	c #B0EE8F",
"n	c #82D56E",
"o	c #ABEC89",
"p	c #A5EA82",
"q	c #A6EA84",
"r	c #4DBC40",
"s	c #B9F097",
"t	c #AEEB8E",
"u	c #AFEB8F",
"v	c #A0E77B",
"w	c #9EE778",
"x	c #27AB20",
"y	c #36B22D",
"z	c #36B22C",
"A	c #34B12B",
"B	c #5AC24A",
"C	c #A7E885",
"D	c #94E26B",
"E	c #95E36C",
"F	c #32AF27",
"G	c #9FE47B",
"H	c #8BDD60",
"I	c #8DDE62",
"J	c #32B026",
"K	c #98E172",
"L	c #82D955",
"M	c #83DA57",
"N	c #2FAF24",
"O	c #91DD69",
"P	c #7AD64B",
"Q	c #7CD74D",
"R	c #2EAD22",
"S	c #8BDB61",
"T	c #73D242",
"U	c #75D244",
"V	c #20A817",
"W	c #8EDA62",
"X	c #73D142",
"Y	c #3AB329",
"Z	c #5EC441",
"`	c #5DC340",
"                          ",
"          .++++.          ",
"         ++....++         ",
"        .@#$%%$#@.        ",
"        .&*=--=*&.        ",
"        .;>,'',>;.        ",
"        .)!~{{~!).        ",
"        .]^/((/^].        ",
"   ....._:<[}}[<:_.....   ",
"  +@|1112345665432111|@+  ",
" .+7890009abbbba9000987+. ",
" +.cdeeeefggggggfeeeedc.+ ",
" +.hijjjjjjjjjjjjjjjjih.+ ",
" +.klmmmmmmmmmmmmmmmmlk.+ ",
" +.nopppppqqqqqqpppppon.+ ",
" @+rsttttuvwwwwvuttttsr+. ",
"  +@xyzzABCDEEDCBAzzyx@+  ",
"   .....@FGHIIHGF@.....   ",
"        .JKLMMLKJ.        ",
"        .NOPQQPON.        ",
"        .RSTUUTSR.        ",
"        .VWXUUXWV.        ",
"        ..YZ``ZY..        ",
"         ++....++         ",
"          .++++.          ",
"                          "};
