/* XPM */
static const char * plus_xpm[] = {
"36 36 103 2",
"  	c None",
". 	c #009800",
"+ 	c #009900",
"@ 	c #1AA319",
"# 	c #75CB71",
"$ 	c #79CB75",
"% 	c #19A318",
"& 	c #FFFFF8",
"* 	c #EDFFE4",
"= 	c #EDFFE3",
"- 	c #75CB70",
"; 	c #ECFFE1",
"> 	c #E7FEDC",
", 	c #76CC71",
"' 	c #E9FEDE",
") 	c #E4FED7",
"! 	c #75CB6F",
"~ 	c #E6FEDA",
"{ 	c #E1FDD3",
"] 	c #73CB6D",
"^ 	c #E3FDD6",
"/ 	c #DEFDCE",
"( 	c #72CB6B",
"_ 	c #E1FDD2",
": 	c #DBFCC8",
"< 	c #70CB69",
"[ 	c #DDFCCD",
"} 	c #D6FBC3",
"| 	c #6FCA66",
"1 	c #DAFBC7",
"2 	c #D2F9BD",
"3 	c #16A214",
"4 	c #69C860",
"5 	c #6CC963",
"6 	c #A2E194",
"7 	c #D5F9C1",
"8 	c #CDF9B6",
"9 	c #E5FFD0",
"0 	c #D2F9BC",
"a 	c #D0F8BC",
"b 	c #C9F7B1",
"c 	c #C8F7AF",
"d 	c #65C75B",
"e 	c #CDF7B7",
"f 	c #C3F5A8",
"g 	c #66C75B",
"h 	c #C8F5B0",
"i 	c #BCF3A1",
"j 	c #63C657",
"k 	c #C2F3A9",
"l 	c #B7F199",
"m 	c #61C655",
"n 	c #BDF1A2",
"o 	c #B1EF90",
"p 	c #5FC451",
"q 	c #B8EF9B",
"r 	c #AAEC89",
"s 	c #59C24B",
"t 	c #B3ED95",
"u 	c #A4E980",
"v 	c #009700",
"w 	c #13A10F",
"x 	c #C0F29F",
"y 	c #AFEB8E",
"z 	c #ADEA8D",
"A 	c #A0E77B",
"B 	c #9EE778",
"C 	c #12A00E",
"D 	c #54C045",
"E 	c #57C148",
"F 	c #82D56B",
"G 	c #A7E886",
"H 	c #97E46F",
"I 	c #55C043",
"J 	c #A3E57F",
"K 	c #91E068",
"L 	c #52BE40",
"M 	c #9CE379",
"N 	c #8BDD60",
"O 	c #50BE3D",
"P 	c #98E172",
"Q 	c #84DA58",
"R 	c #4DBD3A",
"S 	c #92DE6B",
"T 	c #7ED851",
"U 	c #7FD851",
"V 	c #4BBB38",
"W 	c #8EDB66",
"X 	c #79D549",
"Y 	c #4ABA35",
"Z 	c #8ADA60",
"` 	c #74D243",
" .	c #44B830",
"..	c #87D75D",
"+.	c #6FD03D",
"@.	c #0E9F0A",
"#.	c #94DD68",
"$.	c #83D659",
"%.	c #82D558",
"&.	c #83D558",
"*.	c #0D9E09",
"=.	c #40B62D",
"-.	c #43B72F",
"                                                                        ",
"                                                                        ",
"                            . + + + + + + .                             ",
"                          + + + + + + + + + +                           ",
"                        + . @ # $ $ $ $ # @ . +                         ",
"                      . + % & * = = = = * & % + .                       ",
"                      + + - ; > > > > > > ; - + +                       ",
"                      + + , ' ) ) ) ) ) ) ' , + +                       ",
"                      + + ! ~ { { { { { { ~ ! + +                       ",
"                      + + ] ^ / / / / / / ^ ] + +                       ",
"                      + + ( _ : : : : : : _ ( + +                       ",
"          . + + + + + + + < [ } } } } } } [ < + + + + + + + .           ",
"        + + + + + + + + + | 1 2 2 2 2 2 2 1 | + + + + + + + + +         ",
"      + . 3 4 5 5 5 5 5 5 6 7 8 8 8 8 8 8 7 6 5 5 5 5 5 5 4 3 . +       ",
"    . + 3 9 0 a a a a a a a b c c c c c c b a a a a a a a 0 9 3 + .     ",
"    + + d e f f f f f f f f f f f f f f f f f f f f f f f f e d + +     ",
"    + + g h i i i i i i i i i i i i i i i i i i i i i i i i h g + +     ",
"    + + j k l l l l l l l l l l l l l l l l l l l l l l l l k j + +     ",
"    + + m n o o o o o o o o o o o o o o o o o o o o o o o o n m + +     ",
"    + + p q r r r r r r r r r r r r r r r r r r r r r r r r q p + +     ",
"    + + s t u u u u u u u u u u u u u u u u u u u u u u u u t s + +     ",
"    v + w x y z z z z z z z A B B B B B B A z z z z z z z y x w + .     ",
"      + . C D E E E E E E F G H H H H H H G F E E E E E E D C . +       ",
"        + + + + + + + + + I J K K K K K K J I + + + + + + + + +         ",
"          . + + + + + + + L M N N N N N N M L + + + + + + + .           ",
"                      + + O P Q Q Q Q Q Q P O + +                       ",
"                      + + R S T U U U U T S R + +                       ",
"                      + + V W X X X X X X W V + +                       ",
"                      + + Y Z ` ` ` ` ` ` Z Y + +                       ",
"                      + +  ...+.+.+.+.+.+... .+ +                       ",
"                      v + @.#.$.%.&.&.%.$.#.@.+ .                       ",
"                        + + *.=.-.-.-.-.=.*.+ +                         ",
"                          + + + + + + + + + +                           ",
"                            . + + + + + + .                             ",
"                                                                        ",
"                                                                        "};
