/* XPM */
static const char *plus_deact_xpm[] = {
"36 36 79 1",
" 	c None",
".	c #4C4C4C",
"+	c #5E5E5E",
"@	c #9E9E9E",
"#	c #A0A0A0",
"$	c #5D5D5D",
"%	c #FBFBFB",
"&	c #F1F1F1",
"*	c #9D9D9D",
"=	c #F0F0F0",
"-	c #EDEDED",
";	c #EEEEEE",
">	c #EAEAEA",
",	c #ECECEC",
"'	c #E8E8E8",
")	c #9C9C9C",
"!	c #E9E9E9",
"~	c #E5E5E5",
"{	c #9B9B9B",
"]	c #E7E7E7",
"^	c #E2E2E2",
"/	c #9A9A9A",
"(	c #E4E4E4",
"_	c #DFDFDF",
":	c #989898",
"<	c #E1E1E1",
"[	c #DBDBDB",
"}	c #5B5B5B",
"|	c #949494",
"1	c #969696",
"2	c #BABABA",
"3	c #DDDDDD",
"4	c #D7D7D7",
"5	c #DADADA",
"6	c #D4D4D4",
"7	c #D3D3D3",
"8	c #919191",
"9	c #CECECE",
"0	c #D2D2D2",
"a	c #CACACA",
"b	c #8E8E8E",
"c	c #C5C5C5",
"d	c #8D8D8D",
"e	c #C9C9C9",
"f	c #BFBFBF",
"g	c #8A8A8A",
"h	c #868686",
"i	c #C1C1C1",
"j	c #B4B4B4",
"k	c #4B4B4B",
"l	c #585858",
"m	c #C8C8C8",
"n	c #BCBCBC",
"o	c #BBBBBB",
"p	c #B1B1B1",
"q	c #AFAFAF",
"r	c #575757",
"s	c #828282",
"t	c #848484",
"u	c #B7B7B7",
"v	c #A9A9A9",
"w	c #818181",
"x	c #B2B2B2",
"y	c #A4A4A4",
"z	c #7F7F7F",
"A	c #AEAEAE",
"B	c #7D7D7D",
"C	c #999999",
"D	c #7B7B7B",
"E	c #797979",
"F	c #8F8F8F",
"G	c #777777",
"H	c #747474",
"I	c #545454",
"J	c #A2A2A2",
"K	c #979797",
"L	c #535353",
"M	c #717171",
"N	c #737373",
"                                    ",
"                                    ",
"              ........              ",
"             ..........             ",
"            ..+@####@+..            ",
"           ..$%&&&&&&%$..           ",
"           ..*=------=*..           ",
"           ..@;>>>>>>;@..           ",
"           ..*,'''''',*..           ",
"           ..)!~~~~~~!)..           ",
"           ..{]^^^^^^]{..           ",
"     ......../(______(/........     ",
"    .........:<[[[[[[<:.........    ",
"   ..}|1111112344444432111111|}..   ",
"  ..}]555555556777777655555555]}..  ",
"  ..8499999999999999999999999948..  ",
"  ..80aaaaaaaaaaaaaaaaaaaaaaaa08..  ",
"  ..b9cccccccccccccccccccccccc9b..  ",
"  ..deffffffffffffffffffffffffed..  ",
"  ..gc222222222222222222222222cg..  ",
"  ..hijjjjjjjjjjjjjjjjjjjjjjjjih..  ",
"  k.lmnooooooopqqqqqqpooooooonml..  ",
"   ..rstttttt#uvvvvvvu#ttttttsr..   ",
"    .........wxyyyyyyxw.........    ",
"     ........zA@@@@@@Az........     ",
"           ..BvCCCCCCvB..           ",
"           ..Dy||||||yD..           ",
"           ..E#FFFFFF#E..           ",
"           ..G*gggggg*G..           ",
"           ..H/hhhhhh/H..           ",
"           k.IJK1111KJI..           ",
"            ..LMNNNNML..            ",
"             ..........             ",
"              ........              ",
"                                    ",
"                                    "};
