/* XPM */
static const char * print_deact_xpm[] = {
"26 26 162 2",
"  	c None",
". 	c #66707C",
"+ 	c #67707C",
"@ 	c #656E7A",
"# 	c #69727D",
"$ 	c #6F7783",
"% 	c #6E7782",
"& 	c #666F7B",
"* 	c #7A818C",
"= 	c #DCDEE1",
"- 	c #E3E5E7",
"; 	c #AAAFB5",
"> 	c #F0F0F0",
", 	c #EFEFEF",
"' 	c #A8ADB2",
") 	c #EBEAE9",
"! 	c #EAE9E8",
"~ 	c #6A727E",
"{ 	c #6C7581",
"] 	c #767F8A",
"^ 	c #7B848F",
"/ 	c #7C858F",
"( 	c #7D8590",
"_ 	c #7D8690",
": 	c #7E8690",
"< 	c #7F8791",
"[ 	c #7F8691",
"} 	c #8C959E",
"| 	c #D6DFE4",
"1 	c #DAE4E8",
"2 	c #DEE6EA",
"3 	c #E1E8EC",
"4 	c #E5EAEE",
"5 	c #E7ECEF",
"6 	c #EAEEF1",
"7 	c #ECF0F2",
"8 	c #EDF1F3",
"9 	c #EBEEF1",
"0 	c #E2E8EC",
"a 	c #DBE4E8",
"b 	c #D7DFE5",
"c 	c #8C959F",
"d 	c #B7C0C7",
"e 	c #D8E2E7",
"f 	c #DCE5EA",
"g 	c #E1E8ED",
"h 	c #E4EAEE",
"i 	c #E8EDF0",
"j 	c #EBF0F3",
"k 	c #EDF1F4",
"l 	c #EEF3F5",
"m 	c #E8EDF1",
"n 	c #E1E9ED",
"o 	c #D7E2E7",
"p 	c #B7C0C8",
"q 	c #B4BDC4",
"r 	c #D2DDE3",
"s 	c #D4DEE3",
"t 	c #D8E0E6",
"u 	c #DFE7EB",
"v 	c #E3E9ED",
"w 	c #E7EBEF",
"x 	c #E9EEF1",
"y 	c #E9EEF0",
"z 	c #E0E7EB",
"A 	c #DCE3E8",
"B 	c #D8E1E6",
"C 	c #D3DDE3",
"D 	c #B0BAC1",
"E 	c #CDD7DD",
"F 	c #CDD8DE",
"G 	c #D1DBE0",
"H 	c #D6DEE3",
"I 	c #D9E1E6",
"J 	c #DDE4E9",
"K 	c #DFE6EA",
"L 	c #E1E7EB",
"M 	c #E1E8EB",
"N 	c #DFE7EA",
"O 	c #DDE4E8",
"P 	c #DAE1E5",
"Q 	c #D6DFE3",
"R 	c #D1DBE1",
"S 	c #CDD8DD",
"T 	c #B1BAC1",
"U 	c #ADB6BE",
"V 	c #C6D0D7",
"W 	c #C7D2D8",
"X 	c #CCD5DB",
"Y 	c #CFD8DE",
"Z 	c #D3DCE1",
"` 	c #D7DEE3",
" .	c #D9E1E5",
"..	c #DCE3E7",
"+.	c #DDE3E7",
"@.	c #D7DFE3",
"#.	c #D4DCE1",
"$.	c #D0D9DE",
"%.	c #CCD6DB",
"&.	c #C8D2D9",
"*.	c #C7D1D7",
"=.	c #A8B2BA",
"-.	c #C1CCD3",
";.	c #959EA7",
">.	c #8C969F",
",.	c #8A949E",
"'.	c #8B959F",
").	c #8D96A0",
"!.	c #8E97A1",
"~.	c #8F97A1",
"{.	c #8F98A1",
"].	c #8C96A0",
"^.	c #959FA8",
"/.	c #C1CDD3",
"(.	c #A9B2BA",
"_.	c #A4ADB5",
":.	c #BAC4CC",
"<.	c #616A76",
"[.	c #9EA4AB",
"}.	c #D7D9DC",
"|.	c #D6D8DB",
"1.	c #A4ADB6",
"2.	c #9FA8B1",
"3.	c #AEB9C2",
"4.	c #99A4AD",
"5.	c #C9CED3",
"6.	c #FFFFFF",
"7.	c #FEFEFE",
"8.	c #9AA4AD",
"9.	c #AEBAC2",
"0.	c #9FA9B1",
"a.	c #67707B",
"b.	c #666F7C",
"c.	c #969FA8",
"d.	c #A7B2BB",
"e.	c #A2AEB6",
"f.	c #CDD3D6",
"g.	c #F5F5F5",
"h.	c #F4F4F4",
"i.	c #CDD3D7",
"j.	c #A7B3BB",
"k.	c #6B7480",
"l.	c #A0A9B2",
"m.	c #ABB4BD",
"n.	c #CDD1D6",
"o.	c #EEEEEE",
"p.	c #EDEDED",
"q.	c #CDD2D6",
"r.	c #626B78",
"s.	c #606975",
"t.	c #A3A8AE",
"u.	c #E7E7E7",
"v.	c #E5E5E5",
"w.	c #A3A7AD",
"x.	c #E1E1E0",
"y.	c #E0E0E0",
"z.	c #767E89",
"A.	c #C1C3C6",
"B.	c #C7C8CA",
"C.	c #69717D",
"D.	c #6D7581",
"E.	c #6C7580",
"                                                    ",
"                                                    ",
"              . + + + + + + + + + + .               ",
"            @ # $ % % % % % % % % $ # @             ",
"          & * = - - - - - - - - - - = * &           ",
"          & ; > , , , , , , , , , , > ; &           ",
"          & ' ) ! ! ! ! ! ! ! ! ! ! ) ' &           ",
"        + + ~ { { { { { { { { { { { { ~ + +         ",
"    & & ] ^ / ( ( _ : : < [ : : : ( ( / ^ ] & &     ",
"    + } | 1 2 3 4 5 6 7 8 8 7 9 5 4 0 2 a b c +     ",
"  + & d e e f g h i j k l l k j m h n f e o p & +   ",
"  + & q r s t a u v w i x x y w v z A B s C q & +   ",
"  + & D E F G H I J K L v v M N O P Q R S S T & +   ",
"  + & U V W X Y Z `  ...+.+... .@.#.$.%.&.*.U & +   ",
"  + & =.-.;.>.,.'.).!.~.{.{.~.!.).c ,.].^./.(.& +   ",
"  + & _.:.<.[.}.|.|.|.|.|.|.|.|.|.|.}.[.<.:.1.& +   ",
"  + & 2.3.4.5.6.7.7.7.7.7.7.7.7.7.7.6.5.8.9.0.& +   ",
"  a.b.c.d.e.f.g.h.h.h.h.h.h.h.h.h.h.g.i.e.j.c.b.a.  ",
"    + k.l.m.n.o.p.p.p.p.p.p.p.p.p.p.o.q.m.l.k.+     ",
"      & r.s.t.u.v.v.v.v.v.v.v.v.v.v.u.t.s.r.&       ",
"          & w.x.y.y.y.y.y.y.y.y.y.y.x.w.&           ",
"          . z.A.B.B.B.B.B.B.B.B.B.B.A.z..           ",
"            @ C.D.E.E.E.E.E.E.E.E.D.C.@             ",
"              & + + + + + + + + + + &               ",
"                                                    ",
"                                                    "};
