/* XPM */
static const char * print_xpm[] = {
"26 26 157 2",
"  	c None",
". 	c #31AD20",
"+ 	c #2FAA1F",
"@ 	c #2DB51B",
"# 	c #34BA21",
"$ 	c #33B921",
"% 	c #30AC20",
"& 	c #41BD31",
"* 	c #B8EFB0",
"= 	c #C1F3BA",
"- 	c #C0F2BA",
"; 	c #30AC1F",
"> 	c #83CB79",
", 	c #D1F5CC",
"' 	c #CFF5CA",
") 	c #7FCC75",
"! 	c #C6F6C0",
"~ 	c #C5F5BF",
"{ 	c #31AC20",
"] 	c #35AC26",
"^ 	c #3AAC2B",
"/ 	c #39AC2B",
"( 	c #30AB20",
"_ 	c #2FAD1E",
": 	c #42B932",
"< 	c #48BA38",
"[ 	c #49BB39",
"} 	c #4ABB3A",
"| 	c #4ABB3B",
"1 	c #4BBC3B",
"2 	c #4BBC3C",
"3 	c #4BBB3B",
"4 	c #49BB3A",
"5 	c #42B931",
"6 	c #54CC45",
"7 	c #B5F0AD",
"8 	c #BCF2B5",
"9 	c #C0F3BA",
"0 	c #C2F4BB",
"a 	c #C6F4C0",
"b 	c #C8F5C3",
"c 	c #CAF5C5",
"d 	c #CEF6C9",
"e 	c #CFF6CB",
"f 	c #CFF6C9",
"g 	c #CCF6C7",
"h 	c #C9F5C3",
"i 	c #C4F4BD",
"j 	c #87E87A",
"k 	c #BAF0B3",
"l 	c #B8F0B1",
"m 	c #BEF1B8",
"n 	c #C2F2BC",
"o 	c #C8F3C2",
"p 	c #CCF4C7",
"q 	c #CEF4C9",
"r 	c #D1F5CD",
"s 	c #D2F5CE",
"t 	c #C4F2BE",
"u 	c #83E776",
"v 	c #B4EFAC",
"w 	c #B4EFAD",
"x 	c #B7EFB0",
"y 	c #BBF0B4",
"z 	c #C6F2C0",
"A 	c #CAF4C5",
"B 	c #CAF4C4",
"C 	c #C2F2BB",
"D 	c #BDF0B5",
"E 	c #B8EFB1",
"F 	c #84E776",
"G 	c #7FE772",
"H 	c #AAEDA1",
"I 	c #ABEDA2",
"J 	c #B1EEAA",
"K 	c #B5EFAD",
"L 	c #B9F0B2",
"M 	c #BDF1B7",
"N 	c #C0F1BA",
"O 	c #C3F2BD",
"P 	c #C1F1BB",
"Q 	c #BDF1B6",
"R 	c #ABEDA3",
"S 	c #81E773",
"T 	c #7AE56C",
"U 	c #A1EB98",
"V 	c #A3EB9A",
"W 	c #A7ED9E",
"X 	c #AEEEA5",
"Y 	c #B2EFAA",
"Z 	c #B4F0AC",
"` 	c #B9F1B2",
" .	c #BCF1B4",
"..	c #BCF1B5",
"+.	c #BBF1B4",
"@.	c #B5F0AE",
"#.	c #AFEEA6",
"$.	c #A4EB9A",
"%.	c #A1EA97",
"&.	c #74E465",
"*.	c #9BEA91",
"=.	c #5ED64E",
"-.	c #5AC74C",
";.	c #58C649",
">.	c #59C64B",
",.	c #5BC64D",
"'.	c #5DC74E",
").	c #5EC750",
"!.	c #5DC74F",
"~.	c #5CC74D",
"{.	c #5AC64B",
"].	c #5FD74F",
"^.	c #9AEA90",
"/.	c #6CE35C",
"(.	c #8DE981",
"_.	c #2BA71B",
":.	c #72C767",
"<.	c #B2EEA9",
"[.	c #B0EDA8",
"}.	c #65E154",
"|.	c #80E472",
"1.	c #5EE04D",
"2.	c #A0EC95",
"3.	c #E6F9E3",
"4.	c #E4F9E2",
"5.	c #5DE04D",
"6.	c #80E474",
"7.	c #65E156",
"8.	c #59DD47",
"9.	c #76E268",
"0.	c #70E062",
"a.	c #A5EC9C",
"b.	c #D7F7D3",
"c.	c #D6F6D1",
"d.	c #A6EC9D",
"e.	c #76E269",
"f.	c #58DD47",
"g.	c #30B51E",
"h.	c #6ADD5B",
"i.	c #7CE06F",
"j.	c #A5EA9B",
"k.	c #CDF4C8",
"l.	c #A5EA9C",
"m.	c #30B51F",
"n.	c #2CA71C",
"o.	c #2AA61A",
"p.	c #7AC770",
"q.	c #C4F2BD",
"r.	c #C2F1BB",
"s.	c #78C96D",
"t.	c #BAF1B3",
"u.	c #3CBD2C",
"v.	c #92E587",
"w.	c #97E98C",
"x.	c #30AB1F",
"y.	c #2FB31D",
"z.	c #30B81D",
"                                                    ",
"                                                    ",
"              . . . . . . . . . . . .               ",
"            + @ # $ $ $ $ $ $ $ $ # @ +             ",
"          % & * = - - - - - - - - = * & %           ",
"          ; > , ' ' ' ' ' ' ' ' ' ' , > ;           ",
"          ; ) ! ~ ~ ~ ~ ~ ~ ~ ~ ~ ~ ! ) ;           ",
"        { . ] ^ / / / / / / / / / / ^ ] . {         ",
"    ( _ : < [ [ } | 1 1 2 2 2 3 | } 4 [ < 5 _ (     ",
"    . 6 7 8 9 0 a b c d d e f g h a i 9 8 7 6 .     ",
"  . ; j k l m n o p q r s s r q p o t m l k j ; .   ",
"  . ; u v w x y n z A p p p p B z C D E w v F ; .   ",
"  . ; G H I J K L M N n z z O P Q L K J I R S ; .   ",
"  . ; T U V W X Y Z `  .....+.` @.Y #.W $.%.T ; .   ",
"  . ; &.*.=.-.;.>.,.'.).).).).!.~.{.;.-.].^.&.; .   ",
"  . ; /.(._.:.<.[.[.[.[.[.[.[.[.[.[.<.:._.(./.; .   ",
"  . ; }.|.1.2.3.4.4.4.4.4.4.4.4.4.4.3.2.5.6.7.; .   ",
"  . { 8.9.0.a.b.c.c.c.c.c.c.c.c.c.c.b.d.0.e.f.{ .   ",
"    . g.h.i.j.q k.k.k.k.k.k.k.k.k.k.q l.i.h.m..     ",
"      ( n.o.p.q.r.r.r.r.r.r.r.r.r.r.q.p.o.n.(       ",
"          ; s.t.L L L L L L L L L L t.s.;           ",
"          { u.v.w.w.w.w.w.w.w.w.w.w.v.u.{           ",
"            x.y.z.z.z.z.z.z.z.z.z.z.y.x.            ",
"              ( . . . . . . . . . . (               ",
"                                                    ",
"                                                    "};
