/* XPM */
static const char * print_xpm[] = {
"36 36 89 1",
" 	c None",
".	c #31AD20",
"+	c #30AB20",
"@	c #3BD027",
"#	c #4BD938",
"$	c #30A920",
"%	c #74E166",
"&	c #E3F9E0",
"*	c #E0F8DD",
"=	c #2DA11E",
"-	c #D4F6CF",
";	c #D1F5CC",
">	c #2EA21F",
",	c #CBF4C5",
"'	c #C0F1BA",
")	c #C2F2BB",
"!	c #BAF0B3",
"~	c #2FA720",
"{	c #39C926",
"]	c #99E98E",
"^	c #9AE990",
"/	c #9FEA95",
"(	c #A0EB96",
"_	c #A3EB9A",
":	c #A5EC9B",
"<	c #A6EC9D",
"[	c #A9EDA0",
"}	c #ABEDA2",
"|	c #A8EC9F",
"1	c #A2EB98",
"2	c #9CEA91",
"3	c #CEF4C9",
"4	c #BFF1B8",
"5	c #C3F2BD",
"6	c #C6F3C0",
"7	c #C9F3C4",
"8	c #D2F5CE",
"9	c #D7F6D3",
"0	c #D8F6D5",
"a	c #D5F6D1",
"b	c #CFF5CA",
"c	c #CCF4C7",
"d	c #68DF58",
"e	c #BCF0B5",
"f	c #B7EFB0",
"g	c #B8F0B1",
"h	c #BDF1B6",
"i	c #C8F3C2",
"j	c #C5F2BF",
"k	c #66DE57",
"l	c #B4EFAC",
"m	c #B5EFAE",
"n	c #65DE55",
"o	c #ACEDA4",
"p	c #B1EEA9",
"q	c #63DE53",
"r	c #AFEEA7",
"s	c #60DD50",
"t	c #AEEEA5",
"u	c #5FDD4E",
"v	c #B2EEAB",
"w	c #97E98C",
"x	c #5ADC49",
"y	c #8FE784",
"z	c #33B322",
"A	c #56DB44",
"B	c #92E887",
"C	c #82E475",
"D	c #51DA3F",
"E	c #8BE67F",
"F	c #7CE36E",
"G	c #52DA41",
"H	c #45D732",
"I	c #E8FAE5",
"J	c #7DE370",
"K	c #4ED93C",
"L	c #83E576",
"M	c #77E269",
"N	c #DBF7D8",
"O	c #85E578",
"P	c #6EE05F",
"Q	c #6FE061",
"R	c #6CE05D",
"S	c #DAF7D6",
"T	c #3DD629",
"U	c #7FE471",
"V	c #80E473",
"W	c #2C9D1E",
"X	c #3CD328",
"                                    ",
"                                    ",
"                                    ",
"          ................          ",
"        +..................+        ",
"       +.+@##############@+.+       ",
"       .$%&**************&%$.       ",
"       .=-;;;;;;;;;;;;;;;;-=.       ",
"       .>,'''''''''''''''',>.       ",
"       .>)!!!!!!!!!!!!!!!!)>.       ",
"     +...~~~~~~~~~~~~~~~~~~...+     ",
"   +............................+   ",
"   .+{]^/((_:<[[}}}}}||:_1(/2]{+.   ",
"  +.{34567,3388999099a8b3c76543{.+  ",
"  ..defgh'5i733;8888;337ij'hgfed..  ",
"  ..kflmfeh5i7c333333c7i54efmlfd..  ",
"  ..nloplm!h'5677777765'h!flpoln..  ",
"  ..qr:[rplf!h4')jj))'h!flpr[<rn..  ",
"  ..s|/_:[tpllg!eeee!gmlpr[<_/|s..  ",
"  ..u(]^/_<|orpllllllvrt[<_/2w1u..  ",
"  ..x^y{zzzzzzzzzzzzzzzzzzzz{y^x..  ",
"  ..ABC+>!llllllllllllllll!>+CBA..  ",
"  ..DEFGHI&&&&&&&&&&&&&&&&IHGJEG..  ",
"  ..KL%M%&NNNNNNNNNNNNNNNN&%M%LK..  ",
"  ..@OPQRS----------------SPQQL@..  ",
"   .+TJCU;3333333333333333;VCJT+.   ",
"   +.+~$W3jjjjjjjjjjjjjjjj3W$~+.+   ",
"    +...>i4444444444444444i>...+    ",
"       .>egggggggggggggggge>.       ",
"       .+qvppppppppppppppvq+.       ",
"       +.+{XXXXXXXXXXXXXX{+.+       ",
"        +..................+        ",
"          +..............+          ",
"                                    ",
"                                    ",
"                                    "};
