/* XPM */
static const char * print_deact_xpm[] = {
"36 36 243 2",
"  	c None",
". 	c #66707C",
"+ 	c #67707C",
"@ 	c #666F7B",
"# 	c #7F8690",
"$ 	c #8C939C",
"% 	c #656E7A",
"& 	c #ACB0B7",
"* 	c #FCFCFC",
"= 	c #FAFAFA",
"- 	c #5F6875",
"; 	c #F3F3F3",
"> 	c #F0F0F0",
", 	c #606A76",
"' 	c #ECECEB",
") 	c #E5E5E5",
"! 	c #616A76",
"~ 	c #E6E6E5",
"{ 	c #E0E0DF",
"] 	c #636C78",
"^ 	c #636C79",
"/ 	c #7A838E",
"( 	c #C1C9D0",
"_ 	c #C4CCD3",
": 	c #C6CED4",
"< 	c #C8CFD5",
"[ 	c #CAD0D6",
"} 	c #CBD1D7",
"| 	c #CDD2D8",
"1 	c #CED4D9",
"2 	c #D0D5D9",
"3 	c #D1D5D9",
"4 	c #D2D7DA",
"5 	c #D3D7DB",
"6 	c #D2D6D9",
"7 	c #D0D4D9",
"8 	c #CFD4D9",
"9 	c #CAD1D6",
"0 	c #C5CDD3",
"a 	c #676F7A",
"b 	c #E7F0F3",
"c 	c #DCE6EA",
"d 	c #DEE8EC",
"e 	c #E1EAED",
"f 	c #E3EBEF",
"g 	c #E6EDF0",
"h 	c #E9EFF2",
"i 	c #EBF0F3",
"j 	c #EDF2F4",
"k 	c #EFF3F6",
"l 	c #F1F5F7",
"m 	c #F2F6F8",
"n 	c #F3F6F8",
"o 	c #F3F7F8",
"p 	c #F0F4F6",
"q 	c #EBF1F3",
"r 	c #E7EDF0",
"s 	c #E4EBEF",
"t 	c #DFE8EC",
"u 	c #DDE6EB",
"v 	c #E7F0F4",
"w 	c #7A838F",
"x 	c #A0A9B1",
"y 	c #DAE3E9",
"z 	c #D6E0E5",
"A 	c #D8E2E7",
"B 	c #DBE4E9",
"C 	c #DEE6EB",
"D 	c #E1E8ED",
"E 	c #E3EAEE",
"F 	c #E6ECEF",
"G 	c #E9EEF1",
"H 	c #EDF1F4",
"I 	c #EEF2F4",
"J 	c #EEF3F5",
"K 	c #EEF2F5",
"L 	c #ECF1F4",
"M 	c #E6ECF0",
"N 	c #E1E9ED",
"O 	c #D5E0E5",
"P 	c #A0A9B2",
"Q 	c #9FA8B0",
"R 	c #D7E1E5",
"S 	c #D2DDE3",
"T 	c #D5DFE5",
"U 	c #D8E0E6",
"V 	c #DBE3E8",
"W 	c #DDE5E9",
"X 	c #E0E8EC",
"Y 	c #E5EBEF",
"Z 	c #E8EDF0",
"` 	c #EAEEF1",
" .	c #EBEFF2",
"..	c #EBF0F2",
"+.	c #EAEFF2",
"@.	c #E6EBEF",
"#.	c #E1E8EC",
"$.	c #DEE5EA",
"%.	c #D8E1E7",
"&.	c #D6DFE5",
"*.	c #A0A8B0",
"=.	c #9EA7AF",
"-.	c #D3DEE2",
";.	c #CDD8DE",
">.	c #D1DBE0",
",.	c #D4DDE2",
"'.	c #D7DFE5",
").	c #DAE2E7",
"!.	c #DCE4E8",
"~.	c #DFE6EA",
"{.	c #E4E9ED",
"].	c #E4EBEE",
"^.	c #E6EBEE",
"/.	c #E5EBEE",
"(.	c #DAE2E6",
"_.	c #D7E0E5",
":.	c #CED8DE",
"<.	c #9BA5AD",
"[.	c #D0D9DF",
"}.	c #C9D4DA",
"|.	c #CCD7DD",
"1.	c #CFD9DE",
"2.	c #D2DBE0",
"3.	c #D5DDE2",
"4.	c #D7E0E4",
"5.	c #DDE4E8",
"6.	c #DEE5E9",
"7.	c #E0E6EA",
"8.	c #E1E7EB",
"9.	c #E2E8EC",
"0.	c #E0E7EA",
"a.	c #DEE6E9",
"b.	c #DBE2E6",
"c.	c #D8E0E4",
"d.	c #D5DEE2",
"e.	c #D2DBE1",
"f.	c #CFD9DF",
"g.	c #CCD7DC",
"h.	c #C9D5DA",
"i.	c #D0DADF",
"j.	c #9CA5AD",
"k.	c #9AA3AC",
"l.	c #CBD5DB",
"m.	c #C4CFD6",
"n.	c #C7D2D8",
"o.	c #CAD4DA",
"p.	c #CDD6DC",
"q.	c #CFD8DE",
"r.	c #D7DEE3",
"s.	c #D9E0E4",
"t.	c #DCE3E6",
"u.	c #DCE3E7",
"v.	c #D7DFE3",
"w.	c #D5DCE2",
"x.	c #D3DBE0",
"y.	c #D0D9DE",
"z.	c #CED6DC",
"A.	c #CAD5DA",
"B.	c #C8D2D8",
"C.	c #C5D0D6",
"D.	c #CCD5DC",
"E.	c #97A1AA",
"F.	c #C6D0D7",
"G.	c #BFCAD1",
"H.	c #C2CCD3",
"I.	c #C5CFD5",
"J.	c #C8D2D7",
"K.	c #CBD4D9",
"L.	c #CDD5DB",
"M.	c #CFD8DD",
"N.	c #D2DADF",
"O.	c #D5DCE1",
"P.	c #D6DDE1",
"Q.	c #D7DDE2",
"R.	c #D3DCE0",
"S.	c #D0D8DE",
"T.	c #C5CFD6",
"U.	c #C2CDD4",
"V.	c #BFC9D1",
"W.	c #C7D1D7",
"X.	c #98A1AA",
"Y.	c #959FA8",
"Z.	c #C1CCD2",
"`.	c #B9C4CC",
" +	c #78818C",
".+	c #6C7580",
"++	c #6C7581",
"@+	c #B9C5CC",
"#+	c #969FA8",
"$+	c #939CA5",
"%+	c #BDC6CE",
"&+	c #B0BBC3",
"*+	c #606A77",
"=+	c #DFE1E3",
"-+	c #D9DBDE",
";+	c #B1BBC3",
">+	c #BDC6CD",
",+	c #939CA6",
"'+	c #9199A3",
")+	c #B7C1C9",
"!+	c #ACB7C0",
"~+	c #919BA5",
"{+	c #858F9A",
"]+	c #FFFFFF",
"^+	c #FDFDFD",
"/+	c #ACB8C0",
"(+	c #909AA3",
"_+	c #8E97A1",
":+	c #B2BCC3",
"<+	c #A5B1B9",
"[+	c #A7B3BB",
"}+	c #A6B1B9",
"|+	c #FCFCFB",
"1+	c #F8F8F8",
"2+	c #A8B3BB",
"3+	c #67707B",
"4+	c #7E8792",
"5+	c #B3BCC3",
"6+	c #A2ADB6",
"7+	c #A2AEB6",
"8+	c #A0ACB4",
"9+	c #F7F7F6",
"0+	c #A0ACB5",
"a+	c #828B96",
"b+	c #AEB8BF",
"c+	c #B1BAC2",
"d+	c #AFB8C1",
"e+	c #EEEEEE",
"f+	c #AFB9C1",
"g+	c #646D7A",
"h+	c #5D6773",
"i+	c #EFEFEF",
"j+	c #E8E8E8",
"k+	c #E9EAE9",
"l+	c #E3E3E3",
"m+	c #E2E1E1",
"n+	c #DFDFDF",
"o+	c #656F7B",
"p+	c #9FA4AA",
"q+	c #DBDBDB",
"r+	c #DADADA",
"s+	c #7A818B",
"t+	c #838993",
"                                                                        ",
"                                                                        ",
"                                                                        ",
"                    . + + + + + + + + + + + + + + .                     ",
"                @ + + + + + + + + + + + + + + + + + + @                 ",
"              @ + @ # $ $ $ $ $ $ $ $ $ $ $ $ $ $ # @ + @               ",
"              + % & * = = = = = = = = = = = = = = * & % +               ",
"              + - ; > > > > > > > > > > > > > > > > ; - +               ",
"              + , ' ) ) ) ) ) ) ) ) ) ) ) ) ) ) ) ) ' , +               ",
"              + ! ~ { { { { { { { { { { { { { { { { ~ ! +               ",
"          @ + + + ] ^ ^ ^ ^ ^ ^ ^ ^ ^ ^ ^ ^ ^ ^ ^ ^ ] + + + @           ",
"      @ + + + + + + + + + + + + + + + + + + + + + + + + + + + + @       ",
"      + @ / ( _ : < [ } | 1 2 3 4 5 5 4 6 7 8 | } 9 < : 0 ( / @ +       ",
"    a + / b c d e f g h i j k l m n o m l p j q h r s e t u v w + a     ",
"    + + x y z A B C D E F G i H I J J K L i G M E N C B A O y P + +     ",
"    + + Q R S T U V W X E Y Z `  ..... .+.Z @.E #.$.V %.&.S R *.+ +     ",
"    + + =.-.;.>.,.'.).!.~.#.{.].^.F F ^./.{.#.~.!.(._.,.>.:.-.=.+ +     ",
"    + + <.[.}.|.1.2.3.4.).5.6.7.8.9.9.8.0.a.5.b.c.d.e.f.g.h.i.j.+ +     ",
"    + + k.l.m.n.o.p.q.2.3.r.s.b.t.u.u.t.b.s.v.w.x.y.z.A.B.C.D.k.+ +     ",
"    + + E.F.G.H.I.J.K.L.M.N.x.O.P.Q.Q.P.O.R.N.S.z.K.B.T.U.V.W.X.+ +     ",
"    + + Y.Z.`. +.+++++++++++++++++++++++++++++++++++++.+ +@+Z.#++ +     ",
"    + + $+%+&+@ *+=+-+-+-+-+-+-+-+-+-+-+-+-+-+-+-+-+=+*+@ ;+>+,++ +     ",
"    + + '+)+!+~+{+]+^+^+^+^+^+^+^+^+^+^+^+^+^+^+^+^+]+{+~+/+)+(++ +     ",
"    + + _+:+<+[+}+|+1+1+1+1+1+1+1+1+1+1+1+1+1+1+1+1+|+}+2+<+:+_++ +     ",
"    3++ 4+5+6+7+8+9+; ; ; ; ; ; ; ; ; ; ; ; ; ; ; ; 9+0+7+7+:+4++ 3+    ",
"      + @ a+b+c+d+> e+e+e+e+e+e+e+e+e+e+e+e+e+e+e+e+> f+c+b+a+@ +       ",
"      @ + @ g+% h+i+j+j+j+j+j+j+j+j+j+j+j+j+j+j+j+j+i+h+% g+@ + @       ",
"        @ + + + , k+l+l+l+l+l+l+l+l+l+l+l+l+l+l+l+l+k+, + + + @         ",
"              + , m+n+n+n+n+n+n+n+n+n+n+n+n+n+n+n+n+m+, +               ",
"              + o+p+q+r+r+r+r+r+r+r+r+r+r+r+r+r+r+q+p+o++               ",
"              @ + @ s+t+t+t+t+t+t+t+t+t+t+t+t+t+t+s+@ + @               ",
"                @ + + + + + + + + + + + + + + + + + + @                 ",
"                    @ + + + + + + + + + + + + + + @                     ",
"                                                                        ",
"                                                                        ",
"                                                                        "};
