/* XPM */
static const char * save_deact_xpm[] = {
"26 26 168 2",
"  	c None",
". 	c #67707C",
"+ 	c #666F7B",
"@ 	c #767F8A",
"# 	c #B6BEC4",
"$ 	c #BFC7CD",
"% 	c #C0C7CE",
"& 	c #C1C7CE",
"* 	c #D0D3D7",
"= 	c #D0D3D6",
"- 	c #C1C8CE",
"; 	c #C0C8CE",
"> 	c #B6BEC5",
", 	c #676F7B",
"' 	c #B4BDC4",
") 	c #E3ECF0",
"! 	c #E1E9EE",
"~ 	c #E3EAEF",
"{ 	c #E4EBEF",
"] 	c #FFFFFF",
"^ 	c #BAC3C9",
"/ 	c #DBE4E9",
"( 	c #DBE4E8",
"_ 	c #DDE5E9",
": 	c #DDE6EA",
"< 	c #F0F4F6",
"[ 	c #E2EAED",
"} 	c #F6F9F9",
"| 	c #DEE6EA",
"1 	c #DCE4E9",
"2 	c #BBC3C9",
"3 	c #B8C0C7",
"4 	c #D9E1E6",
"5 	c #D8E1E5",
"6 	c #DAE2E6",
"7 	c #EEF2F4",
"8 	c #E0E7EB",
"9 	c #F6F8F9",
"0 	c #B5BEC4",
"a 	c #D4DDE2",
"b 	c #D3DDE1",
"c 	c #D5DEE2",
"d 	c #D5DDE3",
"e 	c #EAEFF1",
"f 	c #D9E1E5",
"g 	c #F4F5F7",
"h 	c #D6DEE3",
"i 	c #D5DDE2",
"j 	c #D4DCE1",
"k 	c #D4DEE3",
"l 	c #B2BBC1",
"m 	c #CFD8DE",
"n 	c #CED7DC",
"o 	c #D1D9DE",
"p 	c #D1D9DD",
"q 	c #D1D9DF",
"r 	c #CFD9DE",
"s 	c #B3BBC1",
"t 	c #AFB8BE",
"u 	c #CAD3D9",
"v 	c #C8D1D7",
"w 	c #CBD3D9",
"x 	c #F0F3F4",
"y 	c #F0F2F4",
"z 	c #F1F2F4",
"A 	c #F1F3F4",
"B 	c #F1F3F5",
"C 	c #C9D2D6",
"D 	c #CAD2D9",
"E 	c #ACB3BB",
"F 	c #C3CCD2",
"G 	c #C2CBD1",
"H 	c #C5CDD3",
"I 	c #C6CED5",
"J 	c #C8D0D6",
"K 	c #CAD1D7",
"L 	c #CAD2D8",
"M 	c #CCD4D9",
"N 	c #C9D1D7",
"O 	c #C7CED5",
"P 	c #C2CBD2",
"Q 	c #C3CBD2",
"R 	c #ACB3BC",
"S 	c #A8B0B7",
"T 	c #BCC6CC",
"U 	c #BBC4CB",
"V 	c #BDC6CC",
"W 	c #C1C9D0",
"X 	c #C3CBD1",
"Y 	c #C4CCD2",
"Z 	c #C5CDD2",
"` 	c #C2CAD0",
" .	c #C0C8CF",
"..	c #BDC6CD",
"+.	c #BCC6CD",
"@.	c #A8B0B8",
"#.	c #A3ACB4",
"$.	c #B5BDC5",
"%.	c #B2BCC3",
"&.	c #B6BEC6",
"*.	c #AFB8C0",
"=.	c #B1B9C2",
"-.	c #B2BBC2",
";.	c #B4BBC4",
">.	c #B4BEC5",
",.	c #B4BDC5",
"'.	c #B4BCC4",
").	c #B6BFC6",
"!.	c #B3BCC3",
"~.	c #9FA7AF",
"{.	c #ACB6BE",
"].	c #ABB4BC",
"^.	c #B3BDC3",
"/.	c #F8F9FA",
"(.	c #B4BDC3",
"_.	c #ABB5BC",
":.	c #9FA8AF",
"<.	c #9AA2AA",
"[.	c #A4ADB5",
"}.	c #A1ABB3",
"|.	c #CED3D8",
"1.	c #A2ABB3",
"2.	c #A4AEB6",
"3.	c #9AA2AB",
"4.	c #959DA6",
"5.	c #9CA6AE",
"6.	c #99A2AB",
"7.	c #CACFD3",
"8.	c #666F7C",
"9.	c #9199A1",
"0.	c #949DA6",
"a.	c #9099A3",
"b.	c #C6CACF",
"c.	c #909AA3",
"d.	c #9199A2",
"e.	c #8B949D",
"f.	c #8C959E",
"g.	c #87919A",
"h.	c #C0C6CB",
"i.	c #C1C6CB",
"j.	c #87919B",
"k.	c #879099",
"l.	c #848D97",
"m.	c #7E8792",
"n.	c #BCC1C6",
"o.	c #7F8792",
"p.	c #838D97",
"q.	c #87909A",
"r.	c #838B95",
"s.	c #7C858F",
"t.	c #76808B",
"u.	c #B8BDC3",
"v.	c #77808B",
"w.	c #7C8590",
"x.	c #808892",
"y.	c #757F8A",
"z.	c #6F7984",
"A.	c #B4B9BE",
"B.	c #B4B9BF",
"C.	c #757F89",
"D.	c #7E8690",
"E.	c #757E89",
"F.	c #6F7884",
"G.	c #B5BABF",
"H.	c #767E89",
"I.	c #7C848E",
"J.	c #7A838D",
"K.	c #A4AAB1",
"                                                    ",
"        . . . . . . . . . . . . . . . . . .         ",
"      . + + + + + + + + + + + + + + + + + + .       ",
"    . @ # $ % & * = = = = = = = = * - ; $ > @ .     ",
"  , + ' ) ! ~ { ] ] ] ] ] ] ] ] ] ] { ~ ! ) ' + ,   ",
"  . + ^ / ( _ : ] ] ] ] ] ] < [ } ] : | ( 1 2 + .   ",
"  . + 3 4 5 6 6 ] ] ] ] ] ] 7 8 9 ] 6 6 5 4 3 + .   ",
"  . + 0 a b c d ] ] ] ] ] ] e f g ] h i j k # + .   ",
"  . + l m n o p ] ] ] ] ] ] ] ] ] ] q o n r s + .   ",
"  . + t u v u w x y z A B B A A y A w w C D t + .   ",
"  . + E F G H I J K L w M M w L N J O H P Q R + .   ",
"  . + S T U V ; W X Y Z H H H Y X `  ...U +.@.+ .   ",
"  . + #.$.%.&.*.=.-.;.>.$.$.,.'.%.=.*.).!.$.#.+ .   ",
"  . + ~.{.].^./.] ] ] ] ] ] ] ] ] ] /.(._.{.:.+ .   ",
"  . + <.[.}.|.] ] ] ] ] ] ] ] ] ] ] ] |.1.2.3.+ .   ",
"  . + 4.5.6.7.] ] ] ] ] ] ] ] ] ] ] ] 7.6.5.4.+ .   ",
"  . 8.9.0.a.b.] ] ] ] ] ] ] ] ] ] ] ] b.c.0.d.8..   ",
"  . . e.f.g.h.] ] ] ] ] ] ] ] ] ] ] ] i.j.f.e.. .   ",
"  . . k.l.m.n.] ] ] ] ] ] ] ] ] ] ] ] n.o.p.q.. .   ",
"  . . r.s.t.u.] ] ] ] ] ] ] ] ] ] ] ] u.v.w.r.. .   ",
"  . . x.y.z.A.] ] ] ] ] ] ] ] ] ] ] ] B.z.C.x.. .   ",
"  . . D.E.F.G.] ] ] ] ] ] ] ] ] ] ] ] G.F.E.D.. .   ",
"  . . H.I.J.K.* = = = = = = = = = = * K.J.I.H.. .   ",
"    . . . . + + + + + + + + + + + + + + . . . .     ",
"      . . . . . . . . . . . . . . . . . . . .       ",
"                                                    "};
