/* XPM */
static const char * save_xpm[] = {
"36 36 109 2",
"  	c None",
". 	c #16BB16",
"+ 	c #595959",
"@ 	c #5D5D5D",
"# 	c #5F5F5F",
"$ 	c #6B6B6B",
"% 	c #E2E2E2",
"& 	c #C9C9C9",
"* 	c #CBCBCB",
"= 	c #CDCDCD",
"- 	c #D1D1D1",
"; 	c #FEFEFE",
"> 	c #FFFFFF",
", 	c #555555",
"' 	c #C7C7C7",
") 	c #BEBEBE",
"! 	c #C0C0C0",
"~ 	c #C2C2C2",
"{ 	c #C5C5C5",
"] 	c #FBFBFB",
"^ 	c #575757",
"/ 	c #B8B8B8",
"( 	c #BABABA",
"_ 	c #CFCFCF",
": 	c #BCBCBC",
"< 	c #B4B4B4",
"[ 	c #B6B6B6",
"} 	c #535353",
"| 	c #AEAEAE",
"1 	c #B0B0B0",
"2 	c #B2B2B2",
"3 	c #DEDEDE",
"4 	c #525252",
"5 	c #A8A8A8",
"6 	c #AAAAAA",
"7 	c #ACACAC",
"8 	c #D8D8D8",
"9 	c #4E4E4E",
"0 	c #A0A0A0",
"a 	c #A4A4A4",
"b 	c #4A4A4A",
"c 	c #A6A6A6",
"d 	c #9B9B9B",
"e 	c #9C9C9C",
"f 	c #9E9E9E",
"g 	c #A2A2A2",
"h 	c #474747",
"i 	c #939393",
"j 	c #979797",
"k 	c #959595",
"l 	c #464646",
"m 	c #898989",
"n 	c #8B8B8B",
"o 	c #8F8F8F",
"p 	c #999999",
"q 	c #8D8D8D",
"r 	c #434343",
"s 	c #808080",
"t 	c #848484",
"u 	c #868686",
"v 	c #878787",
"w 	c #919191",
"x 	c #3F3F3F",
"y 	c #777777",
"z 	c #797979",
"A 	c #7D7D7D",
"B 	c #7F7F7F",
"C 	c #828282",
"D 	c #3C3C3C",
"E 	c #6D6D6D",
"F 	c #6F6F6F",
"G 	c #747474",
"H 	c #767676",
"I 	c #707070",
"J 	c #393939",
"K 	c #646464",
"L 	c #666666",
"M 	c #686868",
"N 	c #EEEEEE",
"O 	c #343434",
"P 	c #5B5B5B",
"Q 	c #ECECEC",
"R 	c #303030",
"S 	c #505050",
"T 	c #4C4C4C",
"U 	c #2E2E2E",
"V 	c #494949",
"W 	c #414141",
"X 	c #292929",
"Y 	c #3E3E3E",
"Z 	c #373737",
"` 	c #2B2B2B",
" .	c #262626",
"..	c #323232",
"+.	c #222222",
"@.	c #232323",
"#.	c #1E1E1E",
"$.	c #1A1A1A",
"%.	c #202020",
"&.	c #1B1B1B",
"*.	c #191919",
"=.	c #145C14",
"-.	c #2D2D2D",
";.	c #167516",
">.	c #161716",
",.	c #282828",
"'.	c #161916",
").	c #142914",
"!.	c #727272",
"                                                                        ",
"                                                                        ",
"          . . . . . . . . . . . . . . . . . . . . . . . . . .           ",
"        . . . . . . . . . . . . . . . . . . . . . . . . . . . .         ",
"      . . . + @ @ # # $ $ $ $ $ $ $ $ $ $ $ $ $ $ # # @ @ + . . .       ",
"    . . . % & * = - - ; > > > > > > > > > > > > ; - - = * & % . . .     ",
"    . . , ' ) ! ~ { ' ] > > > > > > > > ; ] > > ] ' { ~ ! ) ' , . .     ",
"    . . ^ ! / ( ) ! ~ ] > > > > > > > > _ * % > ] ~ ~ ) ( / ~ + . .     ",
"    . . , : < [ ( : ) ] > > > > > > > > * { % > ] ) : / [ < ) , . .     ",
"    . . } / | 1 2 [ / ] > > > > > > > > { ! 3 > ] / [ < 2 | / } . .     ",
"    . . 4 2 5 6 7 | 2 ] > > > > > > > > : / 8 > ] 2 1 7 7 5 2 4 . .     ",
"    . . 9 7 0 a 5 6 7 ] > > > > > > > > ] ] ; > ] 7 6 5 a 0 7 9 . .     ",
"    . . b c d e f g g ] > > > > > > > > > > > > ] a g 0 e d c b . .     ",
"    . . h f i i j d e ' * * = = _ _ _ _ = = = * ' e d j k i f h . .     ",
"    . . l j m n o i i j p d d e e f f e e d d p j k i o q m p l . .     ",
"    . . r o s t u v n q w w i i k k k k k i w w o n v u t s o r . .     ",
"    . . x v y z A B s C u u m m n m m n m v v u C C B A z y v x . .     ",
"    . . D B E F G H F G G H y z z z z z z y y H G F H G I E B D . .     ",
"    . . J H K L M A N > > > > > > > > > > > > > > N B M L K H J . .     ",
"    . . O E + P ^ Q > > > > > > > > > > > > > > > > Q ^ P + F O . .     ",
"    . . R K S 4 T > > > > > > > > > > > > > > > > > > T 4 S K R . .     ",
"    . . U P l V W > > > > > > > > > > > > > > > > > > W V l P U . .     ",
"    . . X } D Y Z > > > > > > > > > > > > > > > > > > Z Y D } ` . .     ",
"    . .  .b R ..U > > > > > > > > > > > > > > > > > > U O R b  .. .     ",
"    . . +.r X ` +.> > > > > > > > > > > > > > > > > > @.` X r +.. .     ",
"    . . #.D +.+.$.> > > > > > > > > > > > > > > > > > $.+.%.D #.. .     ",
"    . . &...*.*.=.> > > > > > > > > > > > > > > > > > =.$.*.O &.. .     ",
"    . . *.-.;.=.;.> > > > > > > > > > > > > > > > > > ;.=.;.-.*.. .     ",
"    . . >.,.;.;.;.> > > > > > > > > > > > > > > > > > ;.;.;.,.>.. .     ",
"    . . '.@.;.;.;.> > > > > > > > > > > > > > > > > > ;.;.;.@.'.. .     ",
"    . . ).,.+.+.>.> > > > > > > > > > > > > > > > > > >.+.+.,.).. .     ",
"    . . . =.=.=.. !.$ $ $ $ $ $ $ $ $ $ $ $ $ $ $ $ !.. =.=.=.. . .     ",
"      . . . . . . . . . . . . . . . . . . . . . . . . . . . . . .       ",
"        . . . . . . . . . . . . . . . . . . . . . . . . . . . .         ",
"                                                                        ",
"                                                                        "};
