/* XPM */
static const char * save_xpm[] = {
"26 26 110 2",
"  	c None",
". 	c #010101",
"+ 	c #000000",
"@ 	c #181818",
"# 	c #7A7A7A",
"$ 	c #878787",
"% 	c #898989",
"& 	c #A2A2A2",
"* 	c #A1A1A1",
"= 	c #777777",
"- 	c #CBCBCB",
"; 	c #C6C6C6",
"> 	c #C9C9C9",
", 	c #CACACA",
"' 	c #FFFFFF",
") 	c #7E7E7E",
"! 	c #BCBCBC",
"~ 	c #BABABA",
"{ 	c #BFBFBF",
"] 	c #E1E1E1",
"^ 	c #C8C8C8",
"/ 	c #ECECEC",
"( 	c #C0C0C0",
"_ 	c #808080",
": 	c #B6B6B6",
"< 	c #B3B3B3",
"[ 	c #B8B8B8",
"} 	c #DFDFDF",
"| 	c #C2C2C2",
"1 	c #B4B4B4",
"2 	c #ADADAD",
"3 	c #ABABAB",
"4 	c #AEAEAE",
"5 	c #AFAFAF",
"6 	c #D6D6D6",
"7 	c #B5B5B5",
"8 	c #E6E6E6",
"9 	c #707070",
"0 	c #A3A3A3",
"a 	c #A7A7A7",
"b 	c #A6A6A6",
"c 	c #696969",
"d 	c #9B9B9B",
"e 	c #969696",
"f 	c #9C9C9C",
"g 	c #E0E0E0",
"h 	c #E2E2E2",
"i 	c #989898",
"j 	c #656565",
"k 	c #8E8E8E",
"l 	c #8B8B8B",
"m 	c #919191",
"n 	c #939393",
"o 	c #979797",
"p 	c #999999",
"q 	c #9A9A9A",
"r 	c #9D9D9D",
"s 	c #949494",
"t 	c #8D8D8D",
"u 	c #5E5E5E",
"v 	c #818181",
"w 	c #838383",
"x 	c #8A8A8A",
"y 	c #8F8F8F",
"z 	c #909090",
"A 	c #575757",
"B 	c #757575",
"C 	c #717171",
"D 	c #6A6A6A",
"E 	c #6D6D6D",
"F 	c #6F6F6F",
"G 	c #737373",
"H 	c #6E6E6E",
"I 	c #727272",
"J 	c #747474",
"K 	c #505050",
"L 	c #686868",
"M 	c #646464",
"N 	c #F0F0F0",
"O 	c #474747",
"P 	c #5A5A5A",
"Q 	c #545454",
"R 	c #404040",
"S 	c #4C4C4C",
"T 	c #484848",
"U 	c #A0A0A0",
"V 	c #383838",
"W 	c #3E3E3E",
"X 	c #393939",
"Y 	c #313131",
"Z 	c #2B2B2B",
"` 	c #929292",
" .	c #2C2C2C",
"..	c #2A2A2A",
"+.	c #282828",
"@.	c #1F1F1F",
"#.	c #8C8C8C",
"$.	c #262626",
"%.	c #232323",
"&.	c #1B1B1B",
"*.	c #131313",
"=.	c #858585",
"-.	c #242424",
";.	c #0A0A0A",
">.	c #1D1D1D",
",.	c #121212",
"'.	c #848484",
").	c #191919",
"!.	c #171717",
"~.	c #5C5C5C",
"                                                    ",
"        . . . . . . . . . . . . . . . . . .         ",
"      . + + + + + + + + + + + + + + + + + + .       ",
"    . @ # $ % % & * * * * * * * * & % % $ # @ .     ",
"  . + = - ; > , ' ' ' ' ' ' ' ' ' ' , > ; - = + .   ",
"  . + ) ! ~ { { ' ' ' ' ' ' ] ^ / ' { ( ~ ! _ + .   ",
"  . + # : < [ [ ' ' ' ' ' ' } | / ' [ [ 1 : # + .   ",
"  . + = 2 3 4 5 ' ' ' ' ' ' 6 7 8 ' 5 5 2 2 = + .   ",
"  . + 9 0 & a b ' ' ' ' ' ' ' ' ' ' b a & 0 9 + .   ",
"  . + c d e f d g } g ] h h ] g g g f f i d c + .   ",
"  . + j k l m n o p q d r r d q p e s m t k j + .   ",
"  . + u v _ w $ x t y z m m m k t l $ w _ v u + .   ",
"  . + A B C = D E F C G G G G C 9 H D = I J A + .   ",
"  . + K L M I N ' ' ' ' ' ' ' ' ' ' N G M L K + .   ",
"  . + O P Q b ' ' ' ' ' ' ' ' ' ' ' ' b Q P O + .   ",
"  . + R S T U ' ' ' ' ' ' ' ' ' ' ' ' U T S R + .   ",
"  . + V W V p ' ' ' ' ' ' ' ' ' ' ' ' p X W X + .   ",
"  . + Y Y Z ` ' ' ' ' ' ' ' ' ' ' ' ' `  .Y Y + .   ",
"  . + ..+.@.#.' ' ' ' ' ' ' ' ' ' ' ' l @.$...+ .   ",
"  . . %.&.*.=.' ' ' ' ' ' ' ' ' ' ' ' =.*.&.-.. .   ",
"  . . @.*.;.v ' ' ' ' ' ' ' ' ' ' ' ' v ;.*.@.. .   ",
"  . . >.,.;.'.' ' ' ' ' ' ' ' ' ' ' ' w ;.,.>.. .   ",
"  . . ,.).!.~.& * * * * * * * * * * & ~.!.).,.. .   ",
"    . . . . + + + + + + + + + + + + + + . . . .     ",
"      . . . . . . . . . . . . . . . . . . . .       ",
"                                                    "};
