/* XPM */
static const char * save_xpm[] = {
"36 36 116 2",
"  	c None",
". 	c #000000",
"+ 	c #010101",
"@ 	c #0D0D0D",
"# 	c #595959",
"$ 	c #5D5D5D",
"% 	c #5F5F5F",
"& 	c #6B6B6B",
"* 	c #E2E2E2",
"= 	c #C9C9C9",
"- 	c #CBCBCB",
"; 	c #CDCDCD",
"> 	c #D1D1D1",
", 	c #FEFEFE",
"' 	c #FFFFFF",
") 	c #555555",
"! 	c #C7C7C7",
"~ 	c #BEBEBE",
"{ 	c #C0C0C0",
"] 	c #C2C2C2",
"^ 	c #C5C5C5",
"/ 	c #FBFBFB",
"( 	c #575757",
"_ 	c #B8B8B8",
": 	c #BABABA",
"< 	c #CFCFCF",
"[ 	c #BCBCBC",
"} 	c #B4B4B4",
"| 	c #B6B6B6",
"1 	c #535353",
"2 	c #AEAEAE",
"3 	c #B0B0B0",
"4 	c #B2B2B2",
"5 	c #DEDEDE",
"6 	c #525252",
"7 	c #A8A8A8",
"8 	c #AAAAAA",
"9 	c #ACACAC",
"0 	c #D8D8D8",
"a 	c #4E4E4E",
"b 	c #A0A0A0",
"c 	c #A4A4A4",
"d 	c #4A4A4A",
"e 	c #A6A6A6",
"f 	c #9B9B9B",
"g 	c #9C9C9C",
"h 	c #9E9E9E",
"i 	c #A2A2A2",
"j 	c #474747",
"k 	c #939393",
"l 	c #979797",
"m 	c #959595",
"n 	c #464646",
"o 	c #898989",
"p 	c #8B8B8B",
"q 	c #8F8F8F",
"r 	c #999999",
"s 	c #8D8D8D",
"t 	c #434343",
"u 	c #808080",
"v 	c #848484",
"w 	c #868686",
"x 	c #878787",
"y 	c #919191",
"z 	c #3F3F3F",
"A 	c #777777",
"B 	c #797979",
"C 	c #7D7D7D",
"D 	c #7F7F7F",
"E 	c #828282",
"F 	c #3C3C3C",
"G 	c #6D6D6D",
"H 	c #6F6F6F",
"I 	c #747474",
"J 	c #767676",
"K 	c #707070",
"L 	c #393939",
"M 	c #646464",
"N 	c #666666",
"O 	c #686868",
"P 	c #EEEEEE",
"Q 	c #343434",
"R 	c #5B5B5B",
"S 	c #ECECEC",
"T 	c #303030",
"U 	c #505050",
"V 	c #4C4C4C",
"W 	c #2E2E2E",
"X 	c #494949",
"Y 	c #414141",
"Z 	c #292929",
"` 	c #3E3E3E",
" .	c #373737",
"..	c #2B2B2B",
"+.	c #262626",
"@.	c #323232",
"#.	c #222222",
"$.	c #232323",
"%.	c #1E1E1E",
"&.	c #1A1A1A",
"*.	c #202020",
"=.	c #1B1B1B",
"-.	c #191919",
";.	c #111111",
">.	c #2D2D2D",
",.	c #101010",
"'.	c #090909",
").	c #171717",
"!.	c #282828",
"~.	c #0B0B0B",
"{.	c #030303",
"].	c #040404",
"^.	c #161616",
"/.	c #060606",
"(.	c #141414",
"_.	c #727272",
"                                                                        ",
"                                                                        ",
"          . + + + + + + + + + + + + + + + + + + + + + + + + .           ",
"        + + + + + + + + + + + + + + + + + + + + + + + + + + + +         ",
"      + . @ # $ $ % % & & & & & & & & & & & & & & % % $ $ # @ . +       ",
"    . + @ * = - ; > > , ' ' ' ' ' ' ' ' ' ' ' ' , > > ; - = * @ + .     ",
"    + + ) ! ~ { ] ^ ! / ' ' ' ' ' ' ' ' , / ' ' / ! ^ ] { ~ ! ) + +     ",
"    + + ( { _ : ~ { ] / ' ' ' ' ' ' ' ' < - * ' / ] ] ~ : _ ] # + +     ",
"    + + ) [ } | : [ ~ / ' ' ' ' ' ' ' ' - ^ * ' / ~ [ _ | } ~ ) + +     ",
"    + + 1 _ 2 3 4 | _ / ' ' ' ' ' ' ' ' ^ { 5 ' / _ | } 4 2 _ 1 + +     ",
"    + + 6 4 7 8 9 2 4 / ' ' ' ' ' ' ' ' [ _ 0 ' / 4 3 9 9 7 4 6 + +     ",
"    + + a 9 b c 7 8 9 / ' ' ' ' ' ' ' ' / / , ' / 9 8 7 c b 9 a + +     ",
"    + + d e f g h i i / ' ' ' ' ' ' ' ' ' ' ' ' / c i b g f e d + +     ",
"    + + j h k k l f g ! - - ; ; < < < < ; ; ; - ! g f l m k h j + +     ",
"    + + n l o p q k k l r f f g g h h g g f f r l m k q s o r n + +     ",
"    + + t q u v w x p s y y k k m m m m m k y y q p x w v u q t + +     ",
"    + + z x A B C D u E w w o o p o o p o x x w E E D C B A x z + +     ",
"    + + F D G H I J H I I J A B B B B B B A A J I H J I K G D F + +     ",
"    + + L J M N O C P ' ' ' ' ' ' ' ' ' ' ' ' ' ' P D O N M J L + +     ",
"    + + Q G # R ( S ' ' ' ' ' ' ' ' ' ' ' ' ' ' ' ' S ( R # H Q + +     ",
"    + + T M U 6 V ' ' ' ' ' ' ' ' ' ' ' ' ' ' ' ' ' ' V 6 U M T + +     ",
"    + + W R n X Y ' ' ' ' ' ' ' ' ' ' ' ' ' ' ' ' ' ' Y X n R W + +     ",
"    + + Z 1 F `  .' ' ' ' ' ' ' ' ' ' ' ' ' ' ' ' ' '  .` F 1 ..+ +     ",
"    + + +.d T @.W ' ' ' ' ' ' ' ' ' ' ' ' ' ' ' ' ' ' W Q T d +.+ +     ",
"    + + #.t Z ..#.' ' ' ' ' ' ' ' ' ' ' ' ' ' ' ' ' ' $...Z t #.+ +     ",
"    + + %.F #.#.&.' ' ' ' ' ' ' ' ' ' ' ' ' ' ' ' ' ' &.#.*.F %.+ +     ",
"    + + =.@.-.-.;.' ' ' ' ' ' ' ' ' ' ' ' ' ' ' ' ' ' ;.&.-.Q =.+ +     ",
"    + + -.>.,.;.'.' ' ' ' ' ' ' ' ' ' ' ' ' ' ' ' ' ' '.;.,.>.-.+ +     ",
"    + + ).!.~.~.{.' ' ' ' ' ' ' ' ' ' ' ' ' ' ' ' ' ' ].~.~.!.).+ +     ",
"    + + ^.$././.. ' ' ' ' ' ' ' ' ' ' ' ' ' ' ' ' ' ' . /./.$.^.+ +     ",
"    + + (.!.#.#.).' ' ' ' ' ' ' ' ' ' ' ' ' ' ' ' ' ' ).#.#.!.(.+ +     ",
"    + + '.;.;.;.@ _.& & & & & & & & & & & & & & & & _.@ ;.;.;.'.+ +     ",
"      + + + + + + + + + + + + + + + + + + + + + + + + + + + + + +       ",
"        + + + + + + + + + + + + + + + + + + + + + + + + + + + +         ",
"                                                                        ",
"                                                                        "};
