/* XPM */
static const char * save_deact_xpm[] = {
"36 36 271 2",
"  	c None",
". 	c #666F7B",
"+ 	c #67707C",
"@ 	c #727B87",
"# 	c #A4ACB4",
"$ 	c #A7AFB7",
"% 	c #A8B0B8",
"& 	c #A9AFB8",
"* 	c #B2B6BD",
"= 	c #B2B7BD",
"- 	c #A9B0B8",
"; 	c #666E7A",
"> 	c #727B86",
", 	c #EEF6F8",
"' 	c #E3EBEE",
") 	c #E4ECEF",
"! 	c #E5ECEF",
"~ 	c #E7EDF1",
"{ 	c #E7EEF1",
"] 	c #FEFFFF",
"^ 	c #FFFFFF",
"/ 	c #E8EEF1",
"( 	c #E5EDF0",
"_ 	c #EEF6F9",
": 	c #A2ABB3",
"< 	c #E1E8ED",
"[ 	c #DCE5EA",
"} 	c #DEE6EB",
"| 	c #DFE7EC",
"1 	c #E0E8EC",
"2 	c #E2E9ED",
"3 	c #FDFEFE",
"4 	c #FDFEFF",
"5 	c #A3ACB4",
"6 	c #DEE7EA",
"7 	c #D9E2E7",
"8 	c #DBE4E8",
"9 	c #DDE5E9",
"0 	c #DEE6EA",
"a 	c #DFE7EB",
"b 	c #E7EDF0",
"c 	c #E4EBEE",
"d 	c #F1F5F6",
"e 	c #DDE5EA",
"f 	c #DAE2E7",
"g 	c #DCE4E9",
"h 	c #D8E0E5",
"i 	c #D9E2E6",
"j 	c #DBE3E7",
"k 	c #DCE4E8",
"l 	c #DDE4E9",
"m 	c #FDFDFE",
"n 	c #E4EAEE",
"o 	c #E1E8EC",
"p 	c #F0F4F6",
"q 	c #DAE3E7",
"r 	c #D7E0E5",
"s 	c #A1A9B1",
"t 	c #DAE2E6",
"u 	c #D4DDE2",
"v 	c #D6DFE3",
"w 	c #D7E0E4",
"x 	c #D9E1E5",
"y 	c #E1E8EB",
"z 	c #DFE6EA",
"A 	c #EFF2F4",
"B 	c #D8E0E4",
"C 	c #D6DFE4",
"D 	c #D5DDE2",
"E 	c #A0A8B0",
"F 	c #D1DADF",
"G 	c #D2DCE1",
"H 	c #D4DDE1",
"I 	c #D5DEE2",
"J 	c #D6DEE4",
"K 	c #FDFDFD",
"L 	c #DDE4E8",
"M 	c #DBE2E6",
"N 	c #EDF0F2",
"O 	c #D7DFE4",
"P 	c #D6DEE3",
"Q 	c #D4DCE1",
"R 	c #D3DCE1",
"S 	c #D1DBE0",
"T 	c #9EA6AE",
"U 	c #D3DDE1",
"V 	c #CDD6DC",
"W 	c #CFD8DD",
"X 	c #D1D9DF",
"Y 	c #D3DBDF",
"Z 	c #D4DCE0",
"` 	c #FEFEFE",
" .	c #D3DADF",
"..	c #CDD7DC",
"+.	c #9CA5AD",
"@.	c #D1D9DD",
"#.	c #C9D3D9",
"$.	c #CBD5D9",
"%.	c #CCD5DB",
"&.	c #CED7DC",
"*.	c #CFD7DC",
"=.	c #CFD7DD",
"-.	c #CDD5DB",
";.	c #CAD3D9",
">.	c #9AA3AB",
",.	c #CDD5DA",
"'.	c #C5CED5",
").	c #C6CFD5",
"!.	c #C8D1D7",
"~.	c #CAD2D8",
"{.	c #CBD3D9",
"].	c #E3E8EB",
"^.	c #E6EAEC",
"/.	c #E6EAED",
"(.	c #E7EAED",
"_.	c #E7EBED",
":.	c #E8EBEE",
"<.	c #E4E8EB",
"[.	c #C7D0D5",
"}.	c #99A1AA",
"|.	c #C9D0D6",
"1.	c #C0C9D0",
"2.	c #C2CBD1",
"3.	c #C4CCD2",
"4.	c #C6CED4",
"5.	c #C6CED5",
"6.	c #C8D0D6",
"7.	c #C9D1D7",
"8.	c #CBD2D8",
"9.	c #CCD3D9",
"0.	c #CCD4D9",
"a.	c #CDD4D9",
"b.	c #CBD3D8",
"c.	c #CAD1D7",
"d.	c #C7CED5",
"e.	c #C4CCD3",
"f.	c #C2CBD2",
"g.	c #C9D0D7",
"h.	c #979FA8",
"i.	c #C5CDD2",
"j.	c #BBC5CC",
"k.	c #BDC6CD",
"l.	c #BEC7CE",
"m.	c #C0C9CF",
"n.	c #C2CAD0",
"o.	c #C3CBD2",
"p.	c #C5CDD3",
"q.	c #C7CFD4",
"r.	c #C7CFD5",
"s.	c #C8CFD5",
"t.	c #C2CAD1",
"u.	c #BEC7CF",
"v.	c #BEC7CD",
"w.	c #C4CDD3",
"x.	c #959DA6",
"y.	c #C0C8CE",
"z.	c #B6BFC7",
"A.	c #B7C0C7",
"B.	c #B9C2C9",
"C.	c #BBC4CA",
"D.	c #BCC5CB",
"E.	c #BDC5CC",
"F.	c #BFC7CD",
"G.	c #C0C8CD",
"H.	c #C1C9CF",
"I.	c #C1CACF",
"J.	c #C1CAD0",
"K.	c #C1C9CE",
"L.	c #B6C0C7",
"M.	c #929BA4",
"N.	c #BBC3CA",
"O.	c #B0B9C1",
"P.	c #B1BBC2",
"Q.	c #B4BCC4",
"R.	c #B5BDC5",
"S.	c #B1BAC2",
"T.	c #B4BDC5",
"U.	c #B6BEC5",
"V.	c #B7BEC6",
"W.	c #B8C0C7",
"X.	c #B7BFC6",
"Y.	c #B6BFC6",
"Z.	c #B5BEC5",
"`.	c #B4BDC4",
" +	c #B2BBC2",
".+	c #9098A2",
"++	c #AAB4BC",
"@+	c #ACB5BD",
"#+	c #ADB7BE",
"$+	c #BAC3C9",
"%+	c #F7F8F9",
"&+	c #BBC3C9",
"*+	c #ACB6BD",
"=+	c #B6BFC5",
"-+	c #9099A2",
";+	c #8D969F",
">+	c #B1B9C0",
",+	c #A4ADB5",
"'+	c #A5AFB7",
")+	c #A2ACB4",
"!+	c #F7F7F8",
"~+	c #F7F8F8",
"{+	c #A6AFB7",
"]+	c #A4ADB6",
"^+	c #B1B9C1",
"/+	c #8C949D",
"(+	c #ABB4BB",
"_+	c #9EA7B0",
":+	c #A0A9B1",
"<+	c #9CA6AF",
"[+	c #9EA8B0",
"}+	c #89919B",
"|+	c #A6AFB6",
"1+	c #98A2AB",
"2+	c #9AA3AC",
"3+	c #959FA8",
"4+	c #95A0A8",
"5+	c #878F98",
"6+	c #929BA5",
"7+	c #939CA6",
"8+	c #8F98A2",
"9+	c #939DA6",
"0+	c #878F99",
"a+	c #848C96",
"b+	c #9CA4AC",
"c+	c #8B959E",
"d+	c #8C969F",
"e+	c #88929C",
"f+	c #8D97A0",
"g+	c #818A94",
"h+	c #868F99",
"i+	c #87909A",
"j+	c #808B95",
"k+	c #818B95",
"l+	c #7F8892",
"m+	c #929AA4",
"n+	c #808994",
"o+	c #7B858F",
"p+	c #7B848F",
"q+	c #818994",
"r+	c #7F8994",
"s+	c #7D8590",
"t+	c #8D969E",
"u+	c #7A838E",
"v+	c #7A848F",
"w+	c #747E8A",
"x+	c #747F8A",
"y+	c #7B838E",
"z+	c #89919A",
"A+	c #747E89",
"B+	c #757F8A",
"C+	c #6F7984",
"D+	c #7B848E",
"E+	c #7A828D",
"F+	c #858D97",
"G+	c #707A85",
"H+	c #69737E",
"I+	c #6A737F",
"J+	c #707A84",
"K+	c #79818B",
"L+	c #838B94",
"M+	c #6C7581",
"N+	c #656F7A",
"O+	c #78808A",
"P+	c #868D97",
"Q+	c #818893",
"R+	c #79828D",
"S+	c #6F7783",
"T+	c #767F89",
"U+	c #737C86",
"V+	c #B6BAC0",
"                                                                        ",
"                                                                        ",
"          . + + + + + + + + + + + + + + + + + + + + + + + + .           ",
"        + + + + + + + + + + + + + + + + + + + + + + + + + + + +         ",
"      + . @ # $ $ % & * = = = = = = = = = = = = * - % $ $ # @ . +       ",
"    ; + > , ' ) ! ~ { ] ^ ^ ^ ^ ^ ^ ^ ^ ^ ^ ^ ^ ] / ~ ( ) ' _ > + ;     ",
"    + + : < [ } | 1 2 3 ^ ^ ^ ^ ^ ^ ^ ^ 4 3 ^ ^ 3 2 1 | } [ < : + +     ",
"    + + 5 6 7 8 9 0 a 3 ^ ^ ^ ^ ^ ^ ^ ^ b c d ^ 3 a a e 8 f a # + +     ",
"    + + : g h i j k l m ^ ^ ^ ^ ^ ^ ^ ^ n o p ^ m 9 k q i r l : + +     ",
"    + + s t u v w x t m ^ ^ ^ ^ ^ ^ ^ ^ y z A ^ m t x B C D t s + +     ",
"    + + E C F G H I J K ^ ^ ^ ^ ^ ^ ^ ^ L M N ^ K O P Q R S O E + +     ",
"    + + T U V W X Y Z K ^ ^ ^ ^ ^ ^ ^ ^ K K ` ^ K Q  .X W ..H T + +     ",
"    + + +.@.#.$.%.&.*.K ^ ^ ^ ^ ^ ^ ^ ^ ^ ^ ^ ^ K =.*.-.$.;.@.+.+ +     ",
"    + + >.,.'.).!.~.{.].^./.(._.:.:.:.:._._.(./.<.{.~.!.[.'.,.>.+ +     ",
"    + + }.|.1.2.3.4.5.6.7.8.8.9.0.a.a.0.9.b.~.c.6.d.4.e.f.1.g.}.+ +     ",
"    + + h.i.j.k.l.m.n.o.p.p.4.q.r.s.s.s.r.4.p.p.3.t.m.u.v.j.w.h.+ +     ",
"    + + x.y.z.A.B.C.D.E.F.G.H.I.n.J.J.n.I.K.y.F.E.E.C.B.A.L.y.x.+ +     ",
"    + + M.N.O.P.Q.R.S.Q.T.U.V.A.W.W.W.W.A.X.Y.R.Q.S.Z.`. +O.N.M.+ +     ",
"    + + .+U.++@+#+$+%+^ ^ ^ ^ ^ ^ ^ ^ ^ ^ ^ ^ ^ ^ %+&+#+*+++=+-++ +     ",
"    + + ;+>+,+'+)+!+^ ^ ^ ^ ^ ^ ^ ^ ^ ^ ^ ^ ^ ^ ^ ^ ~+)+{+]+^+;++ +     ",
"    + + /+(+_+:+<+^ ^ ^ ^ ^ ^ ^ ^ ^ ^ ^ ^ ^ ^ ^ ^ ^ ^ <+:+[+(+/++ +     ",
"    + + }+|+1+2+3+^ ^ ^ ^ ^ ^ ^ ^ ^ ^ ^ ^ ^ ^ ^ ^ ^ ^ 4+2+1+|+}++ +     ",
"    + + 5+s 6+7+8+^ ^ ^ ^ ^ ^ ^ ^ ^ ^ ^ ^ ^ ^ ^ ^ ^ ^ 8+9+6+s 0++ +     ",
"    + + a+b+c+d+e+^ ^ ^ ^ ^ ^ ^ ^ ^ ^ ^ ^ ^ ^ ^ ^ ^ ^ e+f+c+b+a++ +     ",
"    + + g+h.h+i+j+^ ^ ^ ^ ^ ^ ^ ^ ^ ^ ^ ^ ^ ^ ^ ^ ^ ^ k+i+h+h.g++ +     ",
"    + + l+m+n+n+o+^ ^ ^ ^ ^ ^ ^ ^ ^ ^ ^ ^ ^ ^ ^ ^ ^ ^ p+q+r+m+l++ +     ",
"    + + s+t+u+v+w+^ ^ ^ ^ ^ ^ ^ ^ ^ ^ ^ ^ ^ ^ ^ ^ ^ ^ x+p+u+;+s++ +     ",
"    + + y+z+A+B+C+^ ^ ^ ^ ^ ^ ^ ^ ^ ^ ^ ^ ^ ^ ^ ^ ^ ^ C+B+A+z+D++ +     ",
"    + + E+F+G+G+H+^ ^ ^ ^ ^ ^ ^ ^ ^ ^ ^ ^ ^ ^ ^ ^ ^ ^ I+G+J+F+E++ +     ",
"    + + K+L+M+M+N+^ ^ ^ ^ ^ ^ ^ ^ ^ ^ ^ ^ ^ ^ ^ ^ ^ ^ N+M+M+L+K++ +     ",
"    + + O+P+Q+Q+R+^ ^ ^ ^ ^ ^ ^ ^ ^ ^ ^ ^ ^ ^ ^ ^ ^ ^ R+Q+Q+P+O++ +     ",
"    + + S+T+T+T+U+V+= = = = = = = = = = = = = = = = V+U+T+T+T+S++ +     ",
"      + + + + + + + + + + + + + + + + + + + + + + + + + + + + + +       ",
"        + + + + + + + + + + + + + + + + + + + + + + + + + + + +         ",
"                                                                        ",
"                                                                        "};
