/* XPM */
static const char * summe_xpm[] = {
"36 36 301 2",
"  	c None",
". 	c #009900",
"+ 	c #009800",
"@ 	c #009700",
"# 	c #009600",
"$ 	c #009500",
"% 	c #009400",
"& 	c #68C949",
"* 	c #8DD964",
"= 	c #92DD69",
"- 	c #95DE6D",
"; 	c #99E071",
"> 	c #9DE377",
", 	c #A1E57C",
"' 	c #A6E881",
") 	c #AAE987",
"! 	c #AFEC8C",
"~ 	c #B3EE93",
"{ 	c #B9F198",
"] 	c #BCF39F",
"^ 	c #C1F4A4",
"/ 	c #C6F7A9",
"( 	c #C9F8AF",
"_ 	c #CEFAB3",
": 	c #D1FBB8",
"< 	c #D4FDBC",
"[ 	c #D7FEC1",
"} 	c #DAFFC4",
"| 	c #DCFFC7",
"1 	c #DEFFCA",
"2 	c #E0FFCC",
"3 	c #ABE69C",
"4 	c #36B126",
"5 	c #86D65C",
"6 	c #6BCE38",
"7 	c #6ED03B",
"8 	c #73D341",
"9 	c #78D547",
"0 	c #7CD84D",
"a 	c #82DB54",
"b 	c #88DE5B",
"c 	c #8EE163",
"d 	c #93E46A",
"e 	c #9AE771",
"f 	c #9FE979",
"g 	c #A5EC80",
"h 	c #AAEE87",
"i 	c #AFF18E",
"j 	c #B5F395",
"k 	c #BAF59B",
"l 	c #BEF6A1",
"m 	c #C2F8A6",
"n 	c #C6F9AB",
"o 	c #C9FBB0",
"p 	c #CCFCB4",
"q 	c #CFFCB7",
"r 	c #D1FDBA",
"s 	c #D3FEBD",
"t 	c #DFFFCD",
"u 	c #5DC255",
"v 	c #44B82F",
"w 	c #80D455",
"x 	c #71D13E",
"y 	c #75D344",
"z 	c #79D64A",
"A 	c #7FD850",
"B 	c #85DB57",
"C 	c #8ADE5E",
"D 	c #90E266",
"E 	c #96E56D",
"F 	c #9CE775",
"G 	c #A2EA7D",
"H 	c #A8EC84",
"I 	c #ADEE8B",
"J 	c #B3F193",
"K 	c #B8F399",
"L 	c #BCF69F",
"M 	c #C1F6A6",
"N 	c #C5F8AB",
"O 	c #C9FAB1",
"P 	c #CDFBB5",
"Q 	c #D0FCB9",
"R 	c #D3FCBD",
"S 	c #D6FDC0",
"T 	c #D6FEC2",
"U 	c #DEFECD",
"V 	c #72CC6A",
"W 	c #44B82E",
"X 	c #80D456",
"Y 	c #6DCE3A",
"Z 	c #72D13F",
"` 	c #76D445",
" .	c #7BD64B",
"..	c #80D952",
"+.	c #86DC59",
"@.	c #8CDF61",
"#.	c #92E268",
"$.	c #98E570",
"%.	c #9EE777",
"&.	c #A3EB7F",
"*.	c #AAED87",
"=.	c #AFEF8F",
"-.	c #B5F196",
";.	c #BAF49D",
">.	c #BFF5A3",
",.	c #C4F8A9",
"'.	c #C9F8B0",
").	c #CCFAB5",
"!.	c #D0FBB9",
"~.	c #D5FDC2",
"{.	c #D8FDC4",
"].	c #DAFEC7",
"^.	c #E1FED1",
"/.	c #72CC6B",
"(.	c #41B72E",
"_.	c #81D457",
":.	c #6ECF3A",
"<.	c #72D140",
"[.	c #77D346",
"}.	c #7CD64C",
"|.	c #81D953",
"1.	c #87DC5B",
"2.	c #8DDF62",
"3.	c #93E26A",
"4.	c #9AE572",
"5.	c #9FE87A",
"6.	c #A6EB82",
"7.	c #ABED8A",
"8.	c #B1F091",
"9.	c #B7F298",
"0.	c #BDF49F",
"a.	c #C2F6A7",
"b.	c #C6F8AD",
"c.	c #CBF9B3",
"d.	c #CFFAB9",
"e.	c #D3FBBD",
"f.	c #D6FCC2",
"g.	c #D8FDC6",
"h.	c #DBFEC9",
"i.	c #DCFECB",
"j.	c #E3FED5",
"k.	c #73CB6C",
"l.	c #17A310",
"m.	c #92DB66",
"n.	c #7FD452",
"o.	c #81D656",
"p.	c #86D95B",
"q.	c #8ADB61",
"r.	c #90DD67",
"s.	c #95E06F",
"t.	c #9BE375",
"u.	c #A0E67B",
"v.	c #A5E983",
"w.	c #ACEB8A",
"x.	c #B1ED91",
"y.	c #B6F098",
"z.	c #BBF29F",
"A.	c #C1F4A5",
"B.	c #C5F6AC",
"C.	c #CAF7B3",
"D.	c #CFF9B8",
"E.	c #D3FABE",
"F.	c #D6FBC4",
"G.	c #D9FCC8",
"H.	c #DDFDCC",
"I.	c #DFFDCF",
"J.	c #E2FED2",
"K.	c #E4FED5",
"L.	c #F9FFEB",
"M.	c #2BAB28",
"N.	c #66C748",
"O.	c #6CCB4F",
"P.	c #6FCD53",
"Q.	c #73CE56",
"R.	c #77D05B",
"S.	c #79D15F",
"T.	c #7ED364",
"U.	c #81D568",
"V.	c #85D76D",
"W.	c #89D873",
"X.	c #8DDA78",
"Y.	c #90DC7C",
"Z.	c #94DD81",
"`.	c #97DE86",
" +	c #9BE08B",
".+	c #9EE08F",
"++	c #A1E293",
"@+	c #A4E296",
"#+	c #A7E39A",
"$+	c #A9E49D",
"%+	c #ABE5A0",
"&+	c #ACE4A2",
"*+	c #AEE5A4",
"=+	c #ACE4A3",
"-+	c #2AAB27",
";+	c #7DD364",
">+	c #81D569",
",+	c #85D76E",
"'+	c #89D874",
")+	c #90DC7D",
"!+	c #A4E297",
"~+	c #A6E39A",
"{+	c #A8E49D",
"]+	c #ABE5A1",
"^+	c #ADE4A3",
"/+	c #ADE4A4",
"(+	c #18A310",
"_+	c #7FD552",
":+	c #8BDC61",
"<+	c #90DE67",
"[+	c #95E06E",
"}+	c #A0E57B",
"|+	c #A6E983",
"1+	c #ABEB8B",
"2+	c #B1EE91",
"3+	c #B6F099",
"4+	c #C1F4A6",
"5+	c #C6F6AC",
"6+	c #CBF7B3",
"7+	c #CFF9B9",
"8+	c #D3FABF",
"9+	c #DBFCC9",
"0+	c #DFFDD0",
"a+	c #E2FED3",
"b+	c #E4FED6",
"c+	c #82D457",
"d+	c #71D140",
"e+	c #7CD74D",
"f+	c #8EE062",
"g+	c #A0E87A",
"h+	c #B2F091",
"i+	c #B7F299",
"j+	c #BCF4A0",
"k+	c #C2F6A6",
"l+	c #C7F8AD",
"m+	c #D3FBBE",
"n+	c #D9FDC6",
"o+	c #DDFECC",
"p+	c #7BD64C",
"q+	c #80D953",
"r+	c #86DC5A",
"s+	c #9EE878",
"t+	c #A4EB7F",
"u+	c #B5F195",
"v+	c #BBF49D",
"w+	c #C0F5A4",
"x+	c #C4F8AA",
"y+	c #CDFAB5",
"z+	c #D4FCBE",
"A+	c #D6FDC2",
"B+	c #D8FEC5",
"C+	c #E1FED2",
"D+	c #73CC6C",
"E+	c #6CCF38",
"F+	c #7AD64A",
"G+	c #80D851",
"H+	c #8ADF5F",
"I+	c #91E266",
"J+	c #96E56E",
"K+	c #A8ED85",
"L+	c #ADEF8C",
"M+	c #BDF6A0",
"N+	c #C6F8AB",
"O+	c #CDFBB6",
"P+	c #D1FCBA",
"Q+	c #D5FDC1",
"R+	c #D7FEC2",
"S+	c #DFFECD",
"T+	c #71CC6A",
"U+	c #78D647",
"V+	c #7DD84E",
"W+	c #83DB55",
"X+	c #9AE772",
"Y+	c #9FEA7A",
"Z+	c #A5EC81",
"`+	c #ABEE87",
" @	c #B0F18F",
".@	c #BFF6A1",
"+@	c #C3F8A7",
"@@	c #C7F9AC",
"#@	c #CAFBB1",
"$@	c #CDFCB5",
"%@	c #CFFCB8",
"&@	c #D1FDBB",
"*@	c #D4FEBD",
"=@	c #93DD69",
"-@	c #9EE377",
";@	c #AFEC8D",
">@	c #B4EE93",
",@	c #B9F199",
"'@	c #BDF29F",
")@	c #CAF8AF",
"!@	c #CEFAB4",
"~@	c #D1FBB9",
"{@	c #D5FDBC",
"]@	c #D8FEC1",
"^@	c #DAFFC5",
"/@	c #DDFFC8",
"(@	c #DFFFCB",
"_@	c #E1FFCC",
":@	c #E0FFCD",
"                                                                        ",
"                                                                        ",
"                                                                        ",
"                                                                        ",
"                                                                        ",
"                                                                        ",
"        . . . . . . . . . . . . . . . . . . . . . . . . . . . .         ",
"      . . + @ @ @ @ @ @ @ @ # # # # # # # # # $ $ $ $ $ $ % @ . .       ",
"      . + & * = - ; > , ' ) ! ~ { ] ^ / ( _ : < [ } | 1 2 2 3 + .       ",
"    . . 4 5 6 7 8 9 0 a b c d e f g h i j k l m n o p q r s t u . .     ",
"    . . v w 6 x y z A B C D E F G H I J K L M N O P Q R S T U V . .     ",
"    . . W X Y Z `  ...+.@.#.$.%.&.*.=.-.;.>.,.'.).!.R ~.{.].^./.. .     ",
"    . . (._.:.<.[.}.|.1.2.3.4.5.6.7.8.9.0.a.b.c.d.e.f.g.h.i.j.k.. .     ",
"    . . l.m.n.o.p.q.r.s.t.u.v.w.x.y.z.A.B.C.D.E.F.G.H.I.J.K.L.M.. .     ",
"      . + l.N.O.P.Q.R.S.T.U.V.W.X.Y.Z.`. +.+++@+#+$+%+&+*+=+-+@ .       ",
"      + . . . . . . . . . . . . . . . . . . . . . . . . . . . . +       ",
"          + . . . . . . . . . . . . . . . . . . . . . . . . +           ",
"                                                                        ",
"                                                                        ",
"          + . . . . . . . . . . . . . . . . . . . . . . . . +           ",
"      + . . . . . . . . . . . . . . . . . . . . . . . . . . . . +       ",
"      . + l.N.O.P.Q.R.S.;+>+,+'+X.)+Z.`. +.+++!+~+{+]+^+*+/+-+@ .       ",
"    . . (+m._+o.p.:+<+[+t.}+|+1+2+3+z.4+5+6+7+8+F.9+H.0+a+b+L.M.. .     ",
"    . . (.c+:.d+[.e+|.1.f+3.4.g+6.7.h+i+j+k+l+c.d.m+f.n+h.o+K.k.. .     ",
"    . . W X Y Z ` p+q+r+@.#.$.s+t+*.=.u+v+w+x+'.y+!.z+A+B+].C+D+. .     ",
"    . . v w E+x y F+G+B H+I+J+F G K+L+J K M+k+N+O O+P+R Q+R+S+T+. .     ",
"    . . 4 5 6 7 8 U+V+W+b c d X+Y+Z+`+ @j k .@+@@@#@$@%@&@*@t u . .     ",
"      . + & * =@- ; -@, ' ) ;@>@,@'@^ / )@!@~@{@]@^@/@(@_@:@3 + .       ",
"      . . + @ @ @ @ @ @ @ @ # # # # # # # # # $ $ $ $ $ $ % @ . .       ",
"        . . . . . . . . . . . . . . . . . . . . . . . . . . . .         ",
"                                                                        ",
"                                                                        ",
"                                                                        ",
"                                                                        ",
"                                                                        ",
"                                                                        "};
